<svg xmlns="http://www.w3.org/2000/svg" xmlns:xlink="http://www.w3.org/1999/xlink" width="64" zoomAndPan="magnify" viewBox="0 0 48 48" height="64" preserveAspectRatio="xMidYMid meet" version="1.0"><defs><g/><clipPath id="134f33cd25"><path d="M 8.390625 9.679688 L 36.183594 9.679688 L 36.183594 37.472656 L 8.390625 37.472656 Z M 8.390625 9.679688 " clip-rule="nonzero"/></clipPath><clipPath id="c9f2ab1aaf"><path d="M 22.285156 9.679688 C 14.613281 9.679688 8.390625 15.902344 8.390625 23.574219 C 8.390625 31.25 14.613281 37.472656 22.285156 37.472656 C 29.960938 37.472656 36.183594 31.25 36.183594 23.574219 C 36.183594 15.902344 29.960938 9.679688 22.285156 9.679688 Z M 22.285156 9.679688 " clip-rule="nonzero"/></clipPath><clipPath id="96cade52fa"><path d="M 0.390625 0.679688 L 28.183594 0.679688 L 28.183594 28.472656 L 0.390625 28.472656 Z M 0.390625 0.679688 " clip-rule="nonzero"/></clipPath><clipPath id="0218143e84"><path d="M 14.285156 0.679688 C 6.613281 0.679688 0.390625 6.902344 0.390625 14.574219 C 0.390625 22.25 6.613281 28.472656 14.285156 28.472656 C 21.960938 28.472656 28.183594 22.25 28.183594 14.574219 C 28.183594 6.902344 21.960938 0.679688 14.285156 0.679688 Z M 14.285156 0.679688 " clip-rule="nonzero"/></clipPath><clipPath id="9037775e7c"><rect x="0" width="29" y="0" height="29"/></clipPath><clipPath id="23655990f4"><path d="M 0.183594 1 L 18.289062 1 L 18.289062 7.6875 L 0.183594 7.6875 Z M 0.183594 1 " clip-rule="nonzero"/></clipPath><clipPath id="a9482cebed"><rect x="0" width="19" y="0" height="8"/></clipPath><clipPath id="95d5939b38"><path d="M 1 0.101562 L 13.703125 0.101562 L 13.703125 5.746094 L 1 5.746094 Z M 1 0.101562 " clip-rule="nonzero"/></clipPath><clipPath id="7dba437c43"><rect x="0" width="14" y="0" height="6"/></clipPath></defs><g clip-path="url(#134f33cd25)"><g clip-path="url(#c9f2ab1aaf)"><g transform="matrix(1, 0, 0, 1, 8, 9)"><g clip-path="url(#9037775e7c)"><g clip-path="url(#96cade52fa)"><g clip-path="url(#0218143e84)"><path fill="#ffffff" d="M 0.390625 0.679688 L 28.183594 0.679688 L 28.183594 28.472656 L 0.390625 28.472656 Z M 0.390625 0.679688 " fill-opacity="1" fill-rule="nonzero"/></g></g></g></g></g></g><g transform="matrix(1, 0, 0, 1, 13, 13)"><g clip-path="url(#a9482cebed)"><g clip-path="url(#23655990f4)"><path fill="#ffed00" d="M 0.429688 1.015625 L 18.144531 1.015625 L 18.144531 7.5 L 0.429688 7.5 L 0.429688 1.015625 " fill-opacity="1" fill-rule="nonzero"/></g><g fill="#000000" fill-opacity="1"><g transform="translate(1.52707, 5.726635)"><g><path d="M 1.34375 0 L 0.71875 0 L 0.078125 -2.796875 L 0.625 -2.796875 L 1.046875 -0.828125 L 1.09375 -0.828125 L 1.59375 -2.796875 L 2.078125 -2.796875 L 2.578125 -0.828125 L 2.640625 -0.828125 L 3.0625 -2.796875 L 3.59375 -2.796875 L 2.953125 0 L 2.328125 0 L 1.84375 -1.8125 L 1.796875 -1.8125 Z M 1.34375 0 "/></g></g></g><g fill="#000000" fill-opacity="1"><g transform="translate(5.125924, 5.726635)"><g><path d="M 2.6875 0 L 2.109375 0 L 1.890625 -0.640625 L 0.828125 -0.640625 L 0.609375 0 L 0.046875 0 L 1.015625 -2.796875 L 1.71875 -2.796875 Z M 1.328125 -2.21875 L 0.96875 -1.109375 L 1.734375 -1.109375 L 1.375 -2.21875 Z M 1.328125 -2.21875 "/></g></g><g transform="translate(7.852328, 5.726635)"><g><path d="M 2.140625 -2.796875 L 2.140625 -2.34375 L 0.921875 -2.34375 L 0.921875 -1.59375 L 2.03125 -1.59375 L 2.03125 -1.140625 L 0.921875 -1.140625 L 0.921875 0 L 0.359375 0 L 0.359375 -2.796875 Z M 2.140625 -2.796875 "/></g></g><g transform="translate(10.113809, 5.726635)"><g><path d="M 2.140625 -2.796875 L 2.140625 -2.34375 L 0.921875 -2.34375 L 0.921875 -1.59375 L 2.03125 -1.59375 L 2.03125 -1.140625 L 0.921875 -1.140625 L 0.921875 0 L 0.359375 0 L 0.359375 -2.796875 Z M 2.140625 -2.796875 "/></g></g><g transform="translate(12.375289, 5.726635)"><g><path d="M 0.921875 -2.796875 L 0.921875 -0.46875 L 2.171875 -0.46875 L 2.171875 0 L 0.359375 0 L 0.359375 -2.796875 Z M 0.921875 -2.796875 "/></g></g><g transform="translate(14.640597, 5.726635)"><g><path d="M 0.921875 -1.234375 L 0.921875 -0.46875 L 2.25 -0.46875 L 2.25 0 L 0.359375 0 L 0.359375 -2.796875 L 2.21875 -2.796875 L 2.21875 -2.34375 L 0.921875 -2.34375 L 0.921875 -1.6875 L 2.0625 -1.6875 L 2.0625 -1.234375 Z M 0.921875 -1.234375 "/></g></g></g></g></g><g transform="matrix(1, 0, 0, 1, 15, 18)"><g clip-path="url(#7dba437c43)"><g clip-path="url(#95d5939b38)"><path fill="#ffed00" d="M 1.175781 0.574219 L 13.390625 0.574219 L 13.390625 5.628906 L 1.175781 5.628906 L 1.175781 0.574219 " fill-opacity="1" fill-rule="nonzero"/></g><g fill="#000000" fill-opacity="1"><g transform="translate(2.067886, 4.204194)"><g><path d="M 1.625 -1.3125 L 1.625 -2.09375 L 2.046875 -2.09375 L 2.046875 0 L 1.625 0 L 1.625 -0.953125 L 0.6875 -0.953125 L 0.6875 0 L 0.265625 0 L 0.265625 -2.09375 L 0.6875 -2.09375 L 0.6875 -1.3125 Z M 1.625 -1.3125 "/></g></g><g transform="translate(4.382459, 4.204194)"><g><path d="M 1.140625 0.03125 C 0.953125 0.03125 0.785156 -0.00390625 0.640625 -0.078125 C 0.492188 -0.160156 0.378906 -0.28125 0.296875 -0.4375 C 0.210938 -0.601562 0.171875 -0.804688 0.171875 -1.046875 C 0.171875 -1.285156 0.210938 -1.484375 0.296875 -1.640625 C 0.378906 -1.804688 0.492188 -1.925781 0.640625 -2 C 0.785156 -2.082031 0.953125 -2.125 1.140625 -2.125 C 1.335938 -2.125 1.507812 -2.082031 1.65625 -2 C 1.800781 -1.925781 1.914062 -1.804688 2 -1.640625 C 2.082031 -1.484375 2.125 -1.285156 2.125 -1.046875 C 2.125 -0.804688 2.082031 -0.601562 2 -0.4375 C 1.914062 -0.28125 1.800781 -0.160156 1.65625 -0.078125 C 1.507812 -0.00390625 1.335938 0.03125 1.140625 0.03125 Z M 1.140625 -0.328125 C 1.316406 -0.328125 1.453125 -0.382812 1.546875 -0.5 C 1.640625 -0.613281 1.6875 -0.796875 1.6875 -1.046875 C 1.6875 -1.296875 1.640625 -1.476562 1.546875 -1.59375 C 1.453125 -1.707031 1.316406 -1.765625 1.140625 -1.765625 C 0.960938 -1.765625 0.828125 -1.707031 0.734375 -1.59375 C 0.640625 -1.476562 0.59375 -1.296875 0.59375 -1.046875 C 0.59375 -0.796875 0.640625 -0.613281 0.734375 -0.5 C 0.828125 -0.382812 0.960938 -0.328125 1.140625 -0.328125 Z M 1.140625 -0.328125 "/></g></g><g transform="translate(6.668333, 4.204194)"><g><path d="M 1.109375 0.03125 C 0.816406 0.03125 0.601562 -0.0351562 0.46875 -0.171875 C 0.332031 -0.304688 0.265625 -0.507812 0.265625 -0.78125 L 0.265625 -2.09375 L 0.671875 -2.09375 L 0.671875 -0.78125 C 0.671875 -0.632812 0.707031 -0.519531 0.78125 -0.4375 C 0.851562 -0.363281 0.960938 -0.328125 1.109375 -0.328125 C 1.410156 -0.328125 1.5625 -0.476562 1.5625 -0.78125 L 1.5625 -2.09375 L 1.96875 -2.09375 L 1.96875 -0.78125 C 1.96875 -0.507812 1.894531 -0.304688 1.75 -0.171875 C 1.613281 -0.0351562 1.398438 0.03125 1.109375 0.03125 Z M 1.109375 0.03125 "/></g></g><g transform="translate(8.892504, 4.204194)"><g><path d="M 0.921875 0.03125 C 0.785156 0.03125 0.660156 0.015625 0.546875 -0.015625 C 0.429688 -0.0546875 0.332031 -0.101562 0.25 -0.15625 C 0.175781 -0.21875 0.117188 -0.285156 0.078125 -0.359375 L 0.3125 -0.640625 L 0.34375 -0.640625 C 0.40625 -0.546875 0.484375 -0.46875 0.578125 -0.40625 C 0.679688 -0.351562 0.796875 -0.328125 0.921875 -0.328125 C 1.035156 -0.328125 1.117188 -0.347656 1.171875 -0.390625 C 1.234375 -0.441406 1.265625 -0.507812 1.265625 -0.59375 C 1.265625 -0.644531 1.253906 -0.6875 1.234375 -0.71875 C 1.210938 -0.75 1.179688 -0.773438 1.140625 -0.796875 C 1.097656 -0.828125 1.046875 -0.847656 0.984375 -0.859375 L 0.703125 -0.921875 C 0.515625 -0.960938 0.375 -1.035156 0.28125 -1.140625 C 0.1875 -1.242188 0.140625 -1.375 0.140625 -1.53125 C 0.140625 -1.644531 0.171875 -1.75 0.234375 -1.84375 C 0.296875 -1.9375 0.382812 -2.003906 0.5 -2.046875 C 0.613281 -2.097656 0.75 -2.125 0.90625 -2.125 C 1.0625 -2.125 1.195312 -2.101562 1.3125 -2.0625 C 1.425781 -2.019531 1.523438 -1.957031 1.609375 -1.875 L 1.40625 -1.59375 L 1.375 -1.59375 C 1.3125 -1.644531 1.238281 -1.6875 1.15625 -1.71875 C 1.082031 -1.75 1 -1.765625 0.90625 -1.765625 C 0.789062 -1.765625 0.703125 -1.742188 0.640625 -1.703125 C 0.578125 -1.671875 0.546875 -1.617188 0.546875 -1.546875 C 0.546875 -1.484375 0.566406 -1.429688 0.609375 -1.390625 C 0.648438 -1.347656 0.722656 -1.316406 0.828125 -1.296875 L 1.109375 -1.234375 C 1.304688 -1.191406 1.453125 -1.117188 1.546875 -1.015625 C 1.640625 -0.910156 1.6875 -0.78125 1.6875 -0.625 C 1.6875 -0.488281 1.65625 -0.367188 1.59375 -0.265625 C 1.539062 -0.171875 1.457031 -0.0976562 1.34375 -0.046875 C 1.226562 0.00390625 1.085938 0.03125 0.921875 0.03125 Z M 0.921875 0.03125 "/></g></g><g transform="translate(10.6948, 4.204194)"><g><path d="M 0.6875 -0.921875 L 0.6875 -0.34375 L 1.6875 -0.34375 L 1.6875 0 L 0.265625 0 L 0.265625 -2.09375 L 1.671875 -2.09375 L 1.671875 -1.75 L 0.6875 -1.75 L 0.6875 -1.265625 L 1.546875 -1.265625 L 1.546875 -0.921875 Z M 0.6875 -0.921875 "/></g></g></g></g></g><g fill="#000000" fill-opacity="1"><g transform="translate(12.697992, 26.522457)"><g><path d="M 0.609375 0.015625 C 0.523438 0.015625 0.445312 0.00390625 0.375 -0.015625 C 0.300781 -0.0351562 0.238281 -0.0664062 0.1875 -0.109375 C 0.144531 -0.148438 0.113281 -0.191406 0.09375 -0.234375 L 0.1875 -0.34375 L 0.203125 -0.34375 C 0.296875 -0.195312 0.429688 -0.125 0.609375 -0.125 C 0.710938 -0.125 0.789062 -0.144531 0.84375 -0.1875 C 0.894531 -0.238281 0.921875 -0.300781 0.921875 -0.375 C 0.921875 -0.425781 0.910156 -0.46875 0.890625 -0.5 C 0.878906 -0.53125 0.851562 -0.554688 0.8125 -0.578125 C 0.769531 -0.597656 0.71875 -0.617188 0.65625 -0.640625 L 0.484375 -0.671875 C 0.367188 -0.703125 0.28125 -0.75 0.21875 -0.8125 C 0.164062 -0.875 0.140625 -0.957031 0.140625 -1.0625 C 0.140625 -1.125 0.15625 -1.179688 0.1875 -1.234375 C 0.226562 -1.296875 0.28125 -1.34375 0.34375 -1.375 C 0.414062 -1.40625 0.5 -1.421875 0.59375 -1.421875 C 0.695312 -1.421875 0.785156 -1.40625 0.859375 -1.375 C 0.929688 -1.34375 0.988281 -1.296875 1.03125 -1.234375 L 0.953125 -1.125 L 0.921875 -1.125 C 0.878906 -1.175781 0.832031 -1.210938 0.78125 -1.234375 C 0.726562 -1.253906 0.664062 -1.265625 0.59375 -1.265625 C 0.5 -1.265625 0.425781 -1.242188 0.375 -1.203125 C 0.320312 -1.171875 0.296875 -1.125 0.296875 -1.0625 C 0.296875 -1 0.3125 -0.945312 0.34375 -0.90625 C 0.382812 -0.875 0.445312 -0.847656 0.53125 -0.828125 L 0.703125 -0.78125 C 0.835938 -0.75 0.9375 -0.695312 1 -0.625 C 1.0625 -0.5625 1.09375 -0.484375 1.09375 -0.390625 C 1.09375 -0.304688 1.070312 -0.234375 1.03125 -0.171875 C 1 -0.109375 0.945312 -0.0625 0.875 -0.03125 C 0.800781 0 0.710938 0.015625 0.609375 0.015625 Z M 0.609375 0.015625 "/></g></g></g><g fill="#000000" fill-opacity="1"><g transform="translate(13.891971, 26.522457)"><g><path d="M 0.703125 -1.390625 C 0.804688 -1.390625 0.890625 -1.375 0.953125 -1.34375 C 1.023438 -1.3125 1.078125 -1.257812 1.109375 -1.1875 C 1.148438 -1.125 1.171875 -1.050781 1.171875 -0.96875 C 1.171875 -0.882812 1.148438 -0.8125 1.109375 -0.75 C 1.078125 -0.6875 1.023438 -0.632812 0.953125 -0.59375 C 0.890625 -0.5625 0.804688 -0.546875 0.703125 -0.546875 L 0.375 -0.546875 L 0.375 0 L 0.203125 0 L 0.203125 -1.390625 Z M 0.703125 -0.6875 C 0.898438 -0.6875 1 -0.78125 1 -0.96875 C 1 -1.15625 0.898438 -1.25 0.703125 -1.25 L 0.375 -1.25 L 0.375 -0.6875 Z M 0.703125 -0.6875 "/></g></g></g><g fill="#000000" fill-opacity="1"><g transform="translate(15.162181, 26.522457)"><g><path d="M 0.203125 0 L 0.203125 -1.390625 L 0.71875 -1.390625 C 0.8125 -1.390625 0.890625 -1.375 0.953125 -1.34375 C 1.015625 -1.3125 1.0625 -1.269531 1.09375 -1.21875 C 1.125 -1.164062 1.140625 -1.097656 1.140625 -1.015625 C 1.140625 -0.929688 1.117188 -0.859375 1.078125 -0.796875 C 1.035156 -0.742188 0.96875 -0.703125 0.875 -0.671875 L 0.875 -0.65625 C 0.914062 -0.632812 0.953125 -0.601562 0.984375 -0.5625 C 1.015625 -0.53125 1.039062 -0.476562 1.0625 -0.40625 L 1.1875 0 L 1.03125 0 L 0.890625 -0.421875 C 0.867188 -0.472656 0.847656 -0.515625 0.828125 -0.546875 C 0.804688 -0.578125 0.78125 -0.597656 0.75 -0.609375 C 0.71875 -0.617188 0.675781 -0.625 0.625 -0.625 L 0.375 -0.625 L 0.375 0 Z M 0.71875 -0.765625 C 0.800781 -0.765625 0.863281 -0.785156 0.90625 -0.828125 C 0.945312 -0.867188 0.96875 -0.929688 0.96875 -1.015625 C 0.96875 -1.097656 0.945312 -1.15625 0.90625 -1.1875 C 0.863281 -1.226562 0.800781 -1.25 0.71875 -1.25 L 0.375 -1.25 L 0.375 -0.765625 Z M 0.71875 -0.765625 "/></g></g></g><g fill="#000000" fill-opacity="1"><g transform="translate(16.452402, 26.522457)"><g><path d="M 0.375 -0.65625 L 0.375 -0.140625 L 1.078125 -0.140625 L 1.078125 0 L 0.203125 0 L 0.203125 -1.390625 L 1.0625 -1.390625 L 1.0625 -1.265625 L 0.375 -1.265625 L 0.375 -0.796875 L 0.984375 -0.796875 L 0.984375 -0.65625 Z M 0.375 -0.65625 "/></g></g></g><g fill="#000000" fill-opacity="1"><g transform="translate(17.629228, 26.522457)"><g><path d="M 1.25 0 L 1.078125 0 L 0.953125 -0.375 L 0.359375 -0.375 L 0.234375 0 L 0.0625 0 L 0.546875 -1.390625 L 0.765625 -1.390625 Z M 0.640625 -1.21875 L 0.40625 -0.515625 L 0.90625 -0.515625 L 0.671875 -1.21875 Z M 0.640625 -1.21875 "/></g></g></g><g fill="#000000" fill-opacity="1"><g transform="translate(18.938507, 26.522457)"><g><path d="M 0.65625 -1.390625 C 0.800781 -1.390625 0.921875 -1.363281 1.015625 -1.3125 C 1.117188 -1.269531 1.195312 -1.195312 1.25 -1.09375 C 1.3125 -0.988281 1.34375 -0.859375 1.34375 -0.703125 C 1.34375 -0.546875 1.3125 -0.414062 1.25 -0.3125 C 1.195312 -0.207031 1.117188 -0.128906 1.015625 -0.078125 C 0.921875 -0.0234375 0.800781 0 0.65625 0 L 0.203125 0 L 0.203125 -1.390625 Z M 0.640625 -0.140625 C 0.753906 -0.140625 0.847656 -0.15625 0.921875 -0.1875 C 1.003906 -0.226562 1.066406 -0.289062 1.109375 -0.375 C 1.148438 -0.457031 1.171875 -0.566406 1.171875 -0.703125 C 1.171875 -0.835938 1.148438 -0.941406 1.109375 -1.015625 C 1.066406 -1.097656 1.003906 -1.15625 0.921875 -1.1875 C 0.847656 -1.226562 0.753906 -1.25 0.640625 -1.25 L 0.375 -1.25 L 0.375 -0.140625 Z M 0.640625 -0.140625 "/></g></g></g><g fill="#000000" fill-opacity="1"><g transform="translate(20.387816, 26.522457)"><g><path d="M 1.25 0 L 1.078125 0 L 0.953125 -0.375 L 0.359375 -0.375 L 0.234375 0 L 0.0625 0 L 0.546875 -1.390625 L 0.765625 -1.390625 Z M 0.640625 -1.21875 L 0.40625 -0.515625 L 0.90625 -0.515625 L 0.671875 -1.21875 Z M 0.640625 -1.21875 "/></g></g></g><g fill="#000000" fill-opacity="1"><g transform="translate(21.697095, 26.522457)"><g><path d="M 0.203125 0 L 0.203125 -1.390625 L 0.734375 -1.390625 C 0.828125 -1.390625 0.898438 -1.375 0.953125 -1.34375 C 1.015625 -1.320312 1.0625 -1.285156 1.09375 -1.234375 C 1.125 -1.179688 1.140625 -1.125 1.140625 -1.0625 C 1.140625 -1 1.125 -0.941406 1.09375 -0.890625 C 1.0625 -0.835938 1.015625 -0.800781 0.953125 -0.78125 L 0.953125 -0.75 C 1.046875 -0.726562 1.113281 -0.6875 1.15625 -0.625 C 1.207031 -0.570312 1.234375 -0.5 1.234375 -0.40625 C 1.234375 -0.269531 1.191406 -0.164062 1.109375 -0.09375 C 1.035156 -0.03125 0.925781 0 0.78125 0 Z M 0.734375 -0.8125 C 0.804688 -0.8125 0.863281 -0.832031 0.90625 -0.875 C 0.945312 -0.914062 0.96875 -0.96875 0.96875 -1.03125 C 0.96875 -1.101562 0.945312 -1.160156 0.90625 -1.203125 C 0.875 -1.242188 0.816406 -1.265625 0.734375 -1.265625 L 0.375 -1.265625 L 0.375 -0.8125 Z M 0.765625 -0.140625 C 0.960938 -0.140625 1.0625 -0.226562 1.0625 -0.40625 C 1.0625 -0.582031 0.960938 -0.671875 0.765625 -0.671875 L 0.375 -0.671875 L 0.375 -0.140625 Z M 0.765625 -0.140625 "/></g></g></g><g fill="#000000" fill-opacity="1"><g transform="translate(23.03782, 26.522457)"><g><path d="M 0.375 -1.390625 L 0.375 -0.140625 L 1.046875 -0.140625 L 1.046875 0 L 0.203125 0 L 0.203125 -1.390625 Z M 0.375 -1.390625 "/></g></g></g><g fill="#000000" fill-opacity="1"><g transform="translate(24.142226, 26.522457)"><g><path d="M 0.375 -0.65625 L 0.375 -0.140625 L 1.078125 -0.140625 L 1.078125 0 L 0.203125 0 L 0.203125 -1.390625 L 1.0625 -1.390625 L 1.0625 -1.265625 L 0.375 -1.265625 L 0.375 -0.796875 L 0.984375 -0.796875 L 0.984375 -0.65625 Z M 0.375 -0.65625 "/></g></g></g><g fill="#000000" fill-opacity="1"><g transform="translate(25.319052, 26.522457)"><g/></g></g><g fill="#000000" fill-opacity="1"><g transform="translate(25.797406, 26.522457)"><g><path d="M 0.203125 0 L 0.203125 -1.390625 L 0.734375 -1.390625 C 0.828125 -1.390625 0.898438 -1.375 0.953125 -1.34375 C 1.015625 -1.320312 1.0625 -1.285156 1.09375 -1.234375 C 1.125 -1.179688 1.140625 -1.125 1.140625 -1.0625 C 1.140625 -1 1.125 -0.941406 1.09375 -0.890625 C 1.0625 -0.835938 1.015625 -0.800781 0.953125 -0.78125 L 0.953125 -0.75 C 1.046875 -0.726562 1.113281 -0.6875 1.15625 -0.625 C 1.207031 -0.570312 1.234375 -0.5 1.234375 -0.40625 C 1.234375 -0.269531 1.191406 -0.164062 1.109375 -0.09375 C 1.035156 -0.03125 0.925781 0 0.78125 0 Z M 0.734375 -0.8125 C 0.804688 -0.8125 0.863281 -0.832031 0.90625 -0.875 C 0.945312 -0.914062 0.96875 -0.96875 0.96875 -1.03125 C 0.96875 -1.101562 0.945312 -1.160156 0.90625 -1.203125 C 0.875 -1.242188 0.816406 -1.265625 0.734375 -1.265625 L 0.375 -1.265625 L 0.375 -0.8125 Z M 0.765625 -0.140625 C 0.960938 -0.140625 1.0625 -0.226562 1.0625 -0.40625 C 1.0625 -0.582031 0.960938 -0.671875 0.765625 -0.671875 L 0.375 -0.671875 L 0.375 -0.140625 Z M 0.765625 -0.140625 "/></g></g></g><g fill="#000000" fill-opacity="1"><g transform="translate(27.13813, 26.522457)"><g><path d="M 0.71875 0.015625 C 0.550781 0.015625 0.421875 -0.0234375 0.328125 -0.109375 C 0.242188 -0.191406 0.203125 -0.320312 0.203125 -0.5 L 0.203125 -1.390625 L 0.359375 -1.390625 L 0.359375 -0.5 C 0.359375 -0.375 0.382812 -0.28125 0.4375 -0.21875 C 0.5 -0.15625 0.59375 -0.125 0.71875 -0.125 C 0.957031 -0.125 1.078125 -0.25 1.078125 -0.5 L 1.078125 -1.390625 L 1.234375 -1.390625 L 1.234375 -0.5 C 1.234375 -0.320312 1.1875 -0.191406 1.09375 -0.109375 C 1.007812 -0.0234375 0.882812 0.015625 0.71875 0.015625 Z M 0.71875 0.015625 "/></g></g></g><g fill="#000000" fill-opacity="1"><g transform="translate(28.574144, 26.522457)"><g><path d="M 1.09375 -1.390625 L 1.09375 -1.25 L 0.65625 -1.25 L 0.65625 0 L 0.484375 0 L 0.484375 -1.25 L 0.046875 -1.25 L 0.046875 -1.390625 Z M 1.09375 -1.390625 "/></g></g></g><g fill="#000000" fill-opacity="1"><g transform="translate(29.711902, 26.522457)"><g><path d="M 1.09375 -1.390625 L 1.09375 -1.25 L 0.65625 -1.25 L 0.65625 0 L 0.484375 0 L 0.484375 -1.25 L 0.046875 -1.25 L 0.046875 -1.390625 Z M 1.09375 -1.390625 "/></g></g></g><g fill="#000000" fill-opacity="1"><g transform="translate(30.849659, 26.522457)"><g><path d="M 0.375 -0.65625 L 0.375 -0.140625 L 1.078125 -0.140625 L 1.078125 0 L 0.203125 0 L 0.203125 -1.390625 L 1.0625 -1.390625 L 1.0625 -1.265625 L 0.375 -1.265625 L 0.375 -0.796875 L 0.984375 -0.796875 L 0.984375 -0.65625 Z M 0.375 -0.65625 "/></g></g></g><g fill="#000000" fill-opacity="1"><g transform="translate(32.026486, 26.522457)"><g><path d="M 0.203125 0 L 0.203125 -1.390625 L 0.71875 -1.390625 C 0.8125 -1.390625 0.890625 -1.375 0.953125 -1.34375 C 1.015625 -1.3125 1.0625 -1.269531 1.09375 -1.21875 C 1.125 -1.164062 1.140625 -1.097656 1.140625 -1.015625 C 1.140625 -0.929688 1.117188 -0.859375 1.078125 -0.796875 C 1.035156 -0.742188 0.96875 -0.703125 0.875 -0.671875 L 0.875 -0.65625 C 0.914062 -0.632812 0.953125 -0.601562 0.984375 -0.5625 C 1.015625 -0.53125 1.039062 -0.476562 1.0625 -0.40625 L 1.1875 0 L 1.03125 0 L 0.890625 -0.421875 C 0.867188 -0.472656 0.847656 -0.515625 0.828125 -0.546875 C 0.804688 -0.578125 0.78125 -0.597656 0.75 -0.609375 C 0.71875 -0.617188 0.675781 -0.625 0.625 -0.625 L 0.375 -0.625 L 0.375 0 Z M 0.71875 -0.765625 C 0.800781 -0.765625 0.863281 -0.785156 0.90625 -0.828125 C 0.945312 -0.867188 0.96875 -0.929688 0.96875 -1.015625 C 0.96875 -1.097656 0.945312 -1.15625 0.90625 -1.1875 C 0.863281 -1.226562 0.800781 -1.25 0.71875 -1.25 L 0.375 -1.25 L 0.375 -0.765625 Z M 0.71875 -0.765625 "/></g></g></g></svg>