<svg xmlns="http://www.w3.org/2000/svg" xmlns:xlink="http://www.w3.org/1999/xlink" width="64" zoomAndPan="magnify" viewBox="0 0 48 48" height="64" preserveAspectRatio="xMidYMid meet" version="1.0"><defs><clipPath id="74a24eb776"><path d="M 15.632812 19 L 34.734375 19 L 34.734375 29 L 15.632812 29 Z M 15.632812 19 " clip-rule="nonzero"/></clipPath><clipPath id="84050d0659"><path d="M 15.632812 19 L 26 19 L 26 29 L 15.632812 29 Z M 15.632812 19 " clip-rule="nonzero"/></clipPath><clipPath id="75e6271244"><path d="M 25 19 L 34.734375 19 L 34.734375 29 L 25 29 Z M 25 19 " clip-rule="nonzero"/></clipPath><clipPath id="bc012c0cc7"><path d="M 15.632812 28 L 34.734375 28 L 34.734375 31.828125 L 15.632812 31.828125 Z M 15.632812 28 " clip-rule="nonzero"/></clipPath><clipPath id="ef9ac3ec67"><path d="M 15.632812 28 L 26 28 L 26 31.828125 L 15.632812 31.828125 Z M 15.632812 28 " clip-rule="nonzero"/></clipPath><clipPath id="319c232998"><path d="M 25 28 L 34.734375 28 L 34.734375 31.828125 L 25 31.828125 Z M 25 28 " clip-rule="nonzero"/></clipPath><clipPath id="30c0717bb7"><path d="M 15.632812 14.929688 L 34.734375 14.929688 L 34.734375 20 L 15.632812 20 Z M 15.632812 14.929688 " clip-rule="nonzero"/></clipPath><clipPath id="42494a1ad3"><path d="M 15.632812 17 L 26 17 L 26 20 L 15.632812 20 Z M 15.632812 17 " clip-rule="nonzero"/></clipPath><clipPath id="4c3ee210bd"><path d="M 25 17 L 34.734375 17 L 34.734375 20 L 25 20 Z M 25 17 " clip-rule="nonzero"/></clipPath><clipPath id="8521f0ea18"><path d="M 15.632812 14.929688 L 34.734375 14.929688 L 34.734375 20 L 15.632812 20 Z M 15.632812 14.929688 " clip-rule="nonzero"/></clipPath></defs><g clip-path="url(#74a24eb776)"><path fill="#c6302c" d="M 25.183594 19.988281 L 15.632812 19.988281 L 15.632812 28.414062 L 34.734375 28.414062 L 34.734375 19.988281 Z M 25.183594 19.988281 " fill-opacity="1" fill-rule="nonzero"/></g><g clip-path="url(#84050d0659)"><path fill="#ffffff" d="M 25.183594 20.738281 L 25.183594 19.988281 L 15.632812 19.988281 L 15.632812 28.414062 L 25.183594 28.414062 Z M 25.183594 20.738281 " fill-opacity="0.3" fill-rule="nonzero"/></g><g clip-path="url(#75e6271244)"><path fill="#ffffff" d="M 25.183594 19.988281 L 25.183594 28.414062 L 34.734375 28.414062 L 34.734375 19.988281 Z M 25.183594 19.988281 " fill-opacity="0.2" fill-rule="nonzero"/></g><g clip-path="url(#bc012c0cc7)"><path fill="#c6302c" d="M 25.183594 28.414062 L 15.632812 28.414062 L 25.183594 31.804688 L 34.734375 28.414062 Z M 25.183594 28.414062 " fill-opacity="1" fill-rule="nonzero"/></g><g clip-path="url(#ef9ac3ec67)"><path fill="#ffffff" d="M 15.632812 28.414062 L 25.183594 31.804688 L 25.183594 28.414062 Z M 15.632812 28.414062 " fill-opacity="0.3" fill-rule="nonzero"/></g><g clip-path="url(#319c232998)"><path fill="#ffffff" d="M 25.183594 31.804688 L 34.734375 28.414062 L 25.183594 28.414062 Z M 25.183594 31.804688 " fill-opacity="0.2" fill-rule="nonzero"/></g><g clip-path="url(#30c0717bb7)"><path fill="#c6302c" d="M 34.734375 17.46875 L 25.183594 14.953125 L 15.632812 17.46875 L 15.632812 19.988281 L 34.734375 19.988281 Z M 34.734375 17.46875 " fill-opacity="1" fill-rule="nonzero"/></g><g clip-path="url(#42494a1ad3)"><path fill="#ffffff" d="M 25.183594 19.988281 L 15.632812 17.472656 L 15.632812 19.988281 Z M 25.183594 19.988281 " fill-opacity="0.3" fill-rule="nonzero"/></g><g clip-path="url(#4c3ee210bd)"><path fill="#ffffff" d="M 25.183594 19.988281 L 34.734375 19.988281 L 34.734375 17.472656 Z M 25.183594 19.988281 " fill-opacity="0.2" fill-rule="nonzero"/></g><g clip-path="url(#8521f0ea18)"><path fill="#ffffff" d="M 25.183594 19.988281 L 34.734375 17.472656 L 34.734375 17.46875 L 25.183594 14.953125 L 15.632812 17.46875 L 15.632812 17.472656 Z M 25.183594 19.988281 " fill-opacity="0.7" fill-rule="nonzero"/></g></svg>