<svg xmlns="http://www.w3.org/2000/svg" xmlns:xlink="http://www.w3.org/1999/xlink" width="64" zoomAndPan="magnify" viewBox="0 0 48 48" height="64" preserveAspectRatio="xMidYMid meet" version="1.0"><defs><clipPath id="d406e11aac"><path d="M 17.582031 17.453125 L 20.253906 17.453125 L 20.253906 23.09375 L 17.582031 23.09375 Z M 17.582031 17.453125 " clip-rule="nonzero"/></clipPath><clipPath id="cf103391c7"><path d="M 20.253906 18.585938 C 18.785156 22.996094 17.753906 22.703125 17.679688 22.480469 C 17.609375 22.335938 18.636719 21.453125 18.855469 21.527344 C 19.003906 21.671875 19.003906 22.996094 18.855469 23.070312 C 18.636719 23.144531 17.902344 22.554688 17.679688 22.039062 C 17.386719 21.160156 18.050781 18.441406 18.5625 17.78125 C 18.855469 17.484375 19.371094 17.414062 19.59375 17.484375 C 19.886719 17.632812 20.253906 18.585938 20.253906 18.585938 " clip-rule="nonzero"/></clipPath><clipPath id="ee50f33a83"><path d="M 0.582031 0.453125 L 3.253906 0.453125 L 3.253906 6.09375 L 0.582031 6.09375 Z M 0.582031 0.453125 " clip-rule="nonzero"/></clipPath><clipPath id="e9910395df"><path d="M 3.253906 1.585938 C 1.785156 5.996094 0.753906 5.703125 0.679688 5.480469 C 0.609375 5.335938 1.636719 4.453125 1.855469 4.527344 C 2.003906 4.671875 2.003906 5.996094 1.855469 6.070312 C 1.636719 6.144531 0.902344 5.554688 0.679688 5.039062 C 0.386719 4.160156 1.050781 1.441406 1.5625 0.78125 C 1.855469 0.484375 2.371094 0.414062 2.59375 0.484375 C 2.886719 0.632812 3.253906 1.585938 3.253906 1.585938 " clip-rule="nonzero"/></clipPath><clipPath id="ae68520a03"><rect x="0" width="4" y="0" height="7"/></clipPath><clipPath id="9439f31c70"><path d="M 19.917969 17.761719 L 22.015625 17.761719 L 22.015625 22.445312 L 19.917969 22.445312 Z M 19.917969 17.761719 " clip-rule="nonzero"/></clipPath><clipPath id="0b48d5a6bf"><path d="M 22.015625 18.734375 C 21.429688 22.1875 20.988281 22.480469 20.765625 22.40625 C 20.546875 22.261719 20.179688 21.085938 20.328125 20.9375 C 20.472656 20.792969 21.648438 21.304688 21.722656 21.527344 C 21.796875 21.746094 21.355469 22.261719 21.132812 22.335938 C 20.914062 22.40625 20.398438 22.335938 20.179688 22.039062 C 19.8125 21.453125 19.886719 19.324219 20.253906 18.585938 C 20.398438 18.148438 20.839844 17.78125 21.132812 17.78125 C 21.429688 17.78125 22.015625 18.734375 22.015625 18.734375 " clip-rule="nonzero"/></clipPath><clipPath id="92d4046926"><path d="M 0.917969 0.761719 L 3.015625 0.761719 L 3.015625 5.445312 L 0.917969 5.445312 Z M 0.917969 0.761719 " clip-rule="nonzero"/></clipPath><clipPath id="cda1ba03b5"><path d="M 3.015625 1.734375 C 2.429688 5.1875 1.988281 5.480469 1.765625 5.40625 C 1.546875 5.261719 1.179688 4.085938 1.328125 3.9375 C 1.472656 3.792969 2.648438 4.304688 2.722656 4.527344 C 2.796875 4.746094 2.355469 5.261719 2.132812 5.335938 C 1.914062 5.40625 1.398438 5.335938 1.179688 5.039062 C 0.8125 4.453125 0.886719 2.324219 1.253906 1.585938 C 1.398438 1.148438 1.839844 0.78125 2.132812 0.78125 C 2.429688 0.78125 3.015625 1.734375 3.015625 1.734375 " clip-rule="nonzero"/></clipPath><clipPath id="c17088f693"><rect x="0" width="4" y="0" height="6"/></clipPath><clipPath id="f5442ac736"><path d="M 20.796875 14.539062 L 26.320312 14.539062 L 26.320312 18.335938 L 20.796875 18.335938 Z M 20.796875 14.539062 " clip-rule="nonzero"/></clipPath><clipPath id="9867bac975"><path d="M 22.089844 14.546875 C 26.425781 17.339844 26.351562 17.78125 26.203125 18 C 26.058594 18.21875 25.46875 18.367188 25.25 18.292969 C 25.027344 18.148438 24.660156 17.414062 24.808594 17.191406 C 24.882812 16.898438 25.691406 16.675781 25.910156 16.75 C 26.128906 16.898438 26.351562 17.632812 26.277344 17.925781 C 26.128906 18.148438 25.761719 18.367188 25.324219 18.292969 C 24.441406 18.292969 21.574219 16.824219 21.0625 16.089844 C 20.765625 15.722656 20.765625 15.207031 20.914062 14.988281 C 21.132812 14.695312 22.089844 14.546875 22.089844 14.546875 " clip-rule="nonzero"/></clipPath><clipPath id="62ce75e62e"><path d="M 0.796875 0.539062 L 6.320312 0.539062 L 6.320312 4.335938 L 0.796875 4.335938 Z M 0.796875 0.539062 " clip-rule="nonzero"/></clipPath><clipPath id="ff71ecf6d7"><path d="M 2.089844 0.546875 C 6.425781 3.339844 6.351562 3.78125 6.203125 4 C 6.058594 4.21875 5.46875 4.367188 5.25 4.292969 C 5.027344 4.148438 4.660156 3.414062 4.808594 3.191406 C 4.882812 2.898438 5.691406 2.675781 5.910156 2.75 C 6.128906 2.898438 6.351562 3.632812 6.277344 3.925781 C 6.128906 4.148438 5.761719 4.367188 5.324219 4.292969 C 4.441406 4.292969 1.574219 2.824219 1.0625 2.089844 C 0.765625 1.722656 0.765625 1.207031 0.914062 0.988281 C 1.132812 0.695312 2.089844 0.546875 2.089844 0.546875 " clip-rule="nonzero"/></clipPath><clipPath id="725b01f183"><rect x="0" width="7" y="0" height="5"/></clipPath><clipPath id="c1c8bb42ca"><path d="M 21.933594 20.125 L 25.109375 20.125 L 25.109375 24.890625 L 21.933594 24.890625 Z M 21.933594 20.125 " clip-rule="nonzero"/></clipPath><clipPath id="97997c3d0c"><path d="M 25.101562 21.527344 C 23.117188 24.832031 22.605469 24.980469 22.457031 24.832031 C 22.238281 24.613281 22.238281 23.4375 22.457031 23.289062 C 22.675781 23.214844 23.632812 24.023438 23.558594 24.320312 C 23.558594 24.539062 22.824219 24.90625 22.53125 24.832031 C 22.308594 24.757812 22.015625 24.390625 21.941406 24.023438 C 21.871094 23.289062 22.75 21.234375 23.339844 20.644531 C 23.707031 20.277344 24.292969 20.058594 24.585938 20.203125 C 24.882812 20.351562 25.101562 21.527344 25.101562 21.527344 " clip-rule="nonzero"/></clipPath><clipPath id="88622f9231"><path d="M 0.933594 0.125 L 4.109375 0.125 L 4.109375 4.890625 L 0.933594 4.890625 Z M 0.933594 0.125 " clip-rule="nonzero"/></clipPath><clipPath id="477bf38e6e"><path d="M 4.101562 1.527344 C 2.117188 4.832031 1.605469 4.980469 1.457031 4.832031 C 1.238281 4.613281 1.238281 3.4375 1.457031 3.289062 C 1.675781 3.214844 2.632812 4.023438 2.558594 4.320312 C 2.558594 4.539062 1.824219 4.90625 1.53125 4.832031 C 1.308594 4.757812 1.015625 4.390625 0.941406 4.023438 C 0.871094 3.289062 1.75 1.234375 2.339844 0.644531 C 2.707031 0.277344 3.292969 0.0585938 3.585938 0.203125 C 3.882812 0.351562 4.101562 1.527344 4.101562 1.527344 " clip-rule="nonzero"/></clipPath><clipPath id="a217cb004b"><rect x="0" width="5" y="0" height="5"/></clipPath><clipPath id="d21dd03307"><path d="M 27.617188 17.4375 L 30.496094 17.4375 L 30.496094 23.769531 L 27.617188 23.769531 Z M 27.617188 17.4375 " clip-rule="nonzero"/></clipPath><clipPath id="278569caa9"><path d="M 30.464844 18.660156 C 29.070312 23.65625 28.628906 23.804688 28.40625 23.730469 C 28.113281 23.65625 27.671875 22.996094 27.746094 22.703125 C 27.894531 22.480469 28.847656 22.113281 29.070312 22.261719 C 29.289062 22.40625 29.214844 23.511719 28.996094 23.65625 C 28.777344 23.804688 27.96875 23.4375 27.746094 23.070312 C 27.453125 22.554688 27.894531 21.304688 28.039062 20.425781 C 28.261719 19.46875 28.40625 18 28.921875 17.632812 C 29.214844 17.414062 29.804688 17.414062 30.023438 17.632812 C 30.320312 17.78125 30.464844 18.660156 30.464844 18.660156 " clip-rule="nonzero"/></clipPath><clipPath id="89abe174b7"><path d="M 0.617188 0.4375 L 3.496094 0.4375 L 3.496094 6.769531 L 0.617188 6.769531 Z M 0.617188 0.4375 " clip-rule="nonzero"/></clipPath><clipPath id="3e7eb95396"><path d="M 3.464844 1.660156 C 2.070312 6.65625 1.628906 6.804688 1.40625 6.730469 C 1.113281 6.65625 0.671875 5.996094 0.746094 5.703125 C 0.894531 5.480469 1.847656 5.113281 2.070312 5.261719 C 2.289062 5.40625 2.214844 6.511719 1.996094 6.65625 C 1.777344 6.804688 0.96875 6.4375 0.746094 6.070312 C 0.453125 5.554688 0.894531 4.304688 1.039062 3.425781 C 1.261719 2.46875 1.40625 1 1.921875 0.632812 C 2.214844 0.414062 2.804688 0.414062 3.023438 0.632812 C 3.320312 0.78125 3.464844 1.660156 3.464844 1.660156 " clip-rule="nonzero"/></clipPath><clipPath id="98f8032271"><rect x="0" width="4" y="0" height="7"/></clipPath><clipPath id="0fb8ea6f7c"><path d="M 13.890625 25.632812 L 20.351562 25.632812 L 20.351562 28.773438 L 13.890625 28.773438 Z M 13.890625 25.632812 " clip-rule="nonzero"/></clipPath><clipPath id="8e40f50e29"><path d="M 15.035156 25.640625 C 20.328125 27.625 20.398438 28.140625 20.253906 28.359375 C 20.105469 28.578125 19.59375 28.800781 19.296875 28.726562 C 19.078125 28.652344 18.636719 27.992188 18.710938 27.699219 C 18.785156 27.402344 19.519531 27.109375 19.8125 27.183594 C 20.03125 27.257812 20.398438 27.769531 20.328125 27.992188 C 20.328125 28.285156 19.886719 28.652344 19.445312 28.726562 C 18.417969 28.945312 14.890625 27.992188 14.230469 27.257812 C 13.933594 26.964844 13.859375 26.523438 13.933594 26.300781 C 14.082031 26.007812 15.035156 25.640625 15.035156 25.640625 " clip-rule="nonzero"/></clipPath><clipPath id="96d3a23a91"><path d="M 0.890625 0.632812 L 7.351562 0.632812 L 7.351562 3.773438 L 0.890625 3.773438 Z M 0.890625 0.632812 " clip-rule="nonzero"/></clipPath><clipPath id="bacebc0ebd"><path d="M 2.035156 0.640625 C 7.328125 2.625 7.398438 3.140625 7.253906 3.359375 C 7.105469 3.578125 6.59375 3.800781 6.296875 3.726562 C 6.078125 3.652344 5.636719 2.992188 5.710938 2.699219 C 5.785156 2.402344 6.519531 2.109375 6.8125 2.183594 C 7.03125 2.257812 7.398438 2.769531 7.328125 2.992188 C 7.328125 3.285156 6.886719 3.652344 6.445312 3.726562 C 5.417969 3.945312 1.890625 2.992188 1.230469 2.257812 C 0.933594 1.964844 0.859375 1.523438 0.933594 1.300781 C 1.082031 1.007812 2.035156 0.640625 2.035156 0.640625 " clip-rule="nonzero"/></clipPath><clipPath id="c624100762"><rect x="0" width="8" y="0" height="4"/></clipPath><clipPath id="93791f0b20"><path d="M 17.171875 23.554688 L 21.761719 23.554688 L 21.761719 27.25 L 17.171875 27.25 Z M 17.171875 23.554688 " clip-rule="nonzero"/></clipPath><clipPath id="a7250c34d3"><path d="M 18.636719 23.582031 C 21.796875 26.300781 21.648438 26.964844 21.429688 27.109375 C 21.28125 27.257812 20.546875 27.257812 20.472656 27.035156 C 20.253906 26.816406 20.621094 25.640625 20.839844 25.566406 C 21.0625 25.566406 21.796875 26.597656 21.722656 26.816406 C 21.648438 27.035156 21.132812 27.257812 20.765625 27.183594 C 19.960938 27.183594 17.976562 25.933594 17.460938 25.199219 C 17.167969 24.757812 17.09375 24.023438 17.3125 23.730469 C 17.535156 23.511719 18.636719 23.582031 18.636719 23.582031 " clip-rule="nonzero"/></clipPath><clipPath id="08f31273d6"><path d="M 0.171875 0.554688 L 4.761719 0.554688 L 4.761719 4.25 L 0.171875 4.25 Z M 0.171875 0.554688 " clip-rule="nonzero"/></clipPath><clipPath id="500c589718"><path d="M 1.636719 0.582031 C 4.796875 3.300781 4.648438 3.964844 4.429688 4.109375 C 4.28125 4.257812 3.546875 4.257812 3.472656 4.035156 C 3.253906 3.816406 3.621094 2.640625 3.839844 2.566406 C 4.0625 2.566406 4.796875 3.597656 4.722656 3.816406 C 4.648438 4.035156 4.132812 4.257812 3.765625 4.183594 C 2.960938 4.183594 0.976562 2.933594 0.460938 2.199219 C 0.167969 1.757812 0.09375 1.023438 0.3125 0.730469 C 0.535156 0.511719 1.636719 0.582031 1.636719 0.582031 " clip-rule="nonzero"/></clipPath><clipPath id="461980f21e"><rect x="0" width="5" y="0" height="5"/></clipPath><clipPath id="a8859800b6"><path d="M 23.171875 24.367188 L 25.402344 24.367188 L 25.402344 29.046875 L 23.171875 29.046875 Z M 23.171875 24.367188 " clip-rule="nonzero"/></clipPath><clipPath id="98200ba5c5"><path d="M 25.394531 25.492188 C 24.734375 28.875 24.292969 29.09375 24.074219 29.019531 C 23.78125 28.945312 23.484375 27.769531 23.632812 27.625 C 23.78125 27.476562 24.957031 27.917969 25.027344 28.210938 C 25.027344 28.433594 24.660156 28.945312 24.441406 29.019531 C 24.148438 29.09375 23.707031 28.945312 23.484375 28.652344 C 23.117188 28.140625 23.117188 26.007812 23.414062 25.273438 C 23.632812 24.832031 24.074219 24.390625 24.441406 24.390625 C 24.734375 24.390625 25.394531 25.492188 25.394531 25.492188 " clip-rule="nonzero"/></clipPath><clipPath id="2e3509596a"><path d="M 0.171875 0.367188 L 2.402344 0.367188 L 2.402344 5.046875 L 0.171875 5.046875 Z M 0.171875 0.367188 " clip-rule="nonzero"/></clipPath><clipPath id="ea5ac71193"><path d="M 2.394531 1.492188 C 1.734375 4.875 1.292969 5.09375 1.074219 5.019531 C 0.78125 4.945312 0.484375 3.769531 0.632812 3.625 C 0.78125 3.476562 1.957031 3.917969 2.027344 4.210938 C 2.027344 4.433594 1.660156 4.945312 1.441406 5.019531 C 1.148438 5.09375 0.707031 4.945312 0.484375 4.652344 C 0.117188 4.140625 0.117188 2.007812 0.414062 1.273438 C 0.632812 0.832031 1.074219 0.390625 1.441406 0.390625 C 1.734375 0.390625 2.394531 1.492188 2.394531 1.492188 " clip-rule="nonzero"/></clipPath><clipPath id="7f6e2cf796"><rect x="0" width="3" y="0" height="6"/></clipPath><clipPath id="c7202b4aa3"><path d="M 24.421875 18.714844 L 27.410156 18.714844 L 27.410156 24.335938 L 24.421875 24.335938 Z M 24.421875 18.714844 " clip-rule="nonzero"/></clipPath><clipPath id="aa429f2c28"><path d="M 26.128906 19.324219 C 27.527344 24.023438 27.160156 24.320312 26.867188 24.320312 C 26.570312 24.320312 25.984375 23.730469 25.984375 23.511719 C 26.058594 23.214844 27.160156 22.703125 27.304688 22.847656 C 27.527344 22.996094 27.234375 24.171875 26.9375 24.320312 C 26.792969 24.390625 26.351562 24.171875 26.058594 23.878906 C 25.46875 23.214844 24.441406 20.71875 24.441406 19.835938 C 24.441406 19.324219 24.660156 18.882812 24.957031 18.734375 C 25.25 18.660156 26.128906 19.324219 26.128906 19.324219 " clip-rule="nonzero"/></clipPath><clipPath id="81858f094f"><path d="M 0.421875 0.714844 L 3.410156 0.714844 L 3.410156 6.335938 L 0.421875 6.335938 Z M 0.421875 0.714844 " clip-rule="nonzero"/></clipPath><clipPath id="eaf6bbf620"><path d="M 2.128906 1.324219 C 3.527344 6.023438 3.160156 6.320312 2.867188 6.320312 C 2.570312 6.320312 1.984375 5.730469 1.984375 5.511719 C 2.058594 5.214844 3.160156 4.703125 3.304688 4.847656 C 3.527344 4.996094 3.234375 6.171875 2.9375 6.320312 C 2.792969 6.390625 2.351562 6.171875 2.058594 5.878906 C 1.46875 5.214844 0.441406 2.71875 0.441406 1.835938 C 0.441406 1.324219 0.660156 0.882812 0.957031 0.734375 C 1.25 0.660156 2.128906 1.324219 2.128906 1.324219 " clip-rule="nonzero"/></clipPath><clipPath id="58c6e16047"><rect x="0" width="4" y="0" height="7"/></clipPath><clipPath id="fe48a5791e"><path d="M 16.777344 22.09375 L 23.203125 22.09375 L 23.203125 25.148438 L 16.777344 25.148438 Z M 16.777344 22.09375 " clip-rule="nonzero"/></clipPath><clipPath id="69e16ca9e3"><path d="M 18.050781 22.113281 C 23.191406 23.878906 23.265625 24.539062 23.042969 24.757812 C 22.972656 24.980469 22.308594 25.199219 22.089844 25.054688 C 21.871094 24.90625 21.796875 23.65625 22.015625 23.511719 C 22.164062 23.4375 23.191406 24.171875 23.191406 24.390625 C 23.265625 24.6875 22.898438 24.980469 22.457031 25.054688 C 21.574219 25.347656 18.417969 24.613281 17.535156 24.023438 C 17.09375 23.730469 16.800781 23.289062 16.800781 22.921875 C 16.875 22.628906 18.050781 22.113281 18.050781 22.113281 " clip-rule="nonzero"/></clipPath><clipPath id="63573320a2"><path d="M 0.777344 0.0976562 L 7.203125 0.0976562 L 7.203125 3.148438 L 0.777344 3.148438 Z M 0.777344 0.0976562 " clip-rule="nonzero"/></clipPath><clipPath id="e76c8937ff"><path d="M 2.050781 0.113281 C 7.191406 1.878906 7.265625 2.539062 7.042969 2.757812 C 6.972656 2.980469 6.308594 3.199219 6.089844 3.054688 C 5.871094 2.90625 5.796875 1.65625 6.015625 1.511719 C 6.164062 1.4375 7.191406 2.171875 7.191406 2.390625 C 7.265625 2.6875 6.898438 2.980469 6.457031 3.054688 C 5.574219 3.347656 2.417969 2.613281 1.535156 2.023438 C 1.09375 1.730469 0.800781 1.289062 0.800781 0.921875 C 0.875 0.628906 2.050781 0.113281 2.050781 0.113281 " clip-rule="nonzero"/></clipPath><clipPath id="71b88329f4"><rect x="0" width="8" y="0" height="4"/></clipPath><clipPath id="b3e9205d7f"><path d="M 12.863281 19.53125 L 15.714844 19.53125 L 15.714844 26.851562 L 12.863281 26.851562 Z M 12.863281 19.53125 " clip-rule="nonzero"/></clipPath><clipPath id="55a407df61"><path d="M 15.699219 20.644531 C 14.230469 26.816406 13.640625 26.964844 13.347656 26.816406 C 13.125 26.742188 12.90625 26.15625 12.980469 25.933594 C 13.054688 25.640625 13.789062 25.273438 14.007812 25.347656 C 14.300781 25.421875 14.597656 26.449219 14.449219 26.667969 C 14.300781 26.816406 13.347656 26.816406 13.054688 26.523438 C 12.6875 26.082031 13.054688 24.464844 13.199219 23.363281 C 13.347656 22.1875 13.421875 20.351562 13.933594 19.835938 C 14.230469 19.542969 14.964844 19.46875 15.257812 19.617188 C 15.476562 19.761719 15.699219 20.644531 15.699219 20.644531 " clip-rule="nonzero"/></clipPath><clipPath id="eec83bb3c1"><path d="M 0.863281 0.53125 L 3.714844 0.53125 L 3.714844 7.851562 L 0.863281 7.851562 Z M 0.863281 0.53125 " clip-rule="nonzero"/></clipPath><clipPath id="88609a19b1"><path d="M 3.699219 1.644531 C 2.230469 7.816406 1.640625 7.964844 1.347656 7.816406 C 1.125 7.742188 0.90625 7.15625 0.980469 6.933594 C 1.054688 6.640625 1.789062 6.273438 2.007812 6.347656 C 2.300781 6.421875 2.597656 7.449219 2.449219 7.667969 C 2.300781 7.816406 1.347656 7.816406 1.054688 7.523438 C 0.6875 7.082031 1.054688 5.464844 1.199219 4.363281 C 1.347656 3.1875 1.421875 1.351562 1.933594 0.835938 C 2.230469 0.542969 2.964844 0.46875 3.257812 0.617188 C 3.476562 0.761719 3.699219 1.644531 3.699219 1.644531 " clip-rule="nonzero"/></clipPath><clipPath id="78ce61a352"><rect x="0" width="4" y="0" height="8"/></clipPath><clipPath id="9d73cca119"><path d="M 21.234375 16.675781 L 23.636719 16.675781 L 23.636719 22.074219 L 21.234375 22.074219 Z M 21.234375 16.675781 " clip-rule="nonzero"/></clipPath><clipPath id="a12dd7fe49"><path d="M 23.632812 17.78125 C 22.824219 21.894531 22.382812 22.113281 22.164062 22.039062 C 21.871094 21.96875 21.574219 20.71875 21.722656 20.570312 C 21.871094 20.496094 23.042969 20.9375 23.117188 21.234375 C 23.117188 21.453125 22.75 21.96875 22.457031 22.039062 C 22.238281 22.113281 21.648438 21.820312 21.429688 21.378906 C 21.0625 20.71875 21.28125 18.367188 21.648438 17.558594 C 21.871094 17.117188 22.308594 16.675781 22.605469 16.675781 C 22.972656 16.675781 23.632812 17.78125 23.632812 17.78125 " clip-rule="nonzero"/></clipPath><clipPath id="06d709b2b3"><path d="M 0.234375 0.675781 L 2.636719 0.675781 L 2.636719 6.074219 L 0.234375 6.074219 Z M 0.234375 0.675781 " clip-rule="nonzero"/></clipPath><clipPath id="ec309d5ce5"><path d="M 2.632812 1.78125 C 1.824219 5.894531 1.382812 6.113281 1.164062 6.039062 C 0.871094 5.96875 0.574219 4.71875 0.722656 4.570312 C 0.871094 4.496094 2.042969 4.9375 2.117188 5.234375 C 2.117188 5.453125 1.75 5.96875 1.457031 6.039062 C 1.238281 6.113281 0.648438 5.820312 0.429688 5.378906 C 0.0625 4.71875 0.28125 2.367188 0.648438 1.558594 C 0.871094 1.117188 1.308594 0.675781 1.605469 0.675781 C 1.972656 0.675781 2.632812 1.78125 2.632812 1.78125 " clip-rule="nonzero"/></clipPath><clipPath id="77800a96ae"><rect x="0" width="3" y="0" height="7"/></clipPath><clipPath id="bf313a3804"><path d="M 14.757812 16.355469 L 17.277344 16.355469 L 17.277344 22.214844 L 14.757812 22.214844 Z M 14.757812 16.355469 " clip-rule="nonzero"/></clipPath><clipPath id="393e1e285f"><path d="M 16.800781 17.265625 C 17.09375 21.894531 16.800781 22.1875 16.578125 22.1875 C 16.285156 22.1875 15.625 21.160156 15.699219 20.9375 C 15.84375 20.792969 17.09375 20.867188 17.242188 21.160156 C 17.3125 21.304688 17.09375 21.96875 16.875 22.039062 C 16.652344 22.1875 16.066406 22.113281 15.699219 21.820312 C 15.109375 21.160156 14.597656 18.441406 14.816406 17.484375 C 14.890625 16.972656 15.257812 16.457031 15.550781 16.382812 C 15.917969 16.308594 16.800781 17.265625 16.800781 17.265625 " clip-rule="nonzero"/></clipPath><clipPath id="12a2815e87"><path d="M 0.757812 0.355469 L 3.277344 0.355469 L 3.277344 6.214844 L 0.757812 6.214844 Z M 0.757812 0.355469 " clip-rule="nonzero"/></clipPath><clipPath id="82cc05177d"><path d="M 2.800781 1.265625 C 3.09375 5.894531 2.800781 6.1875 2.578125 6.1875 C 2.285156 6.1875 1.625 5.160156 1.699219 4.9375 C 1.84375 4.792969 3.09375 4.867188 3.242188 5.160156 C 3.3125 5.304688 3.09375 5.96875 2.875 6.039062 C 2.652344 6.1875 2.066406 6.113281 1.699219 5.820312 C 1.109375 5.160156 0.597656 2.441406 0.816406 1.484375 C 0.890625 0.972656 1.257812 0.457031 1.550781 0.382812 C 1.917969 0.308594 2.800781 1.265625 2.800781 1.265625 " clip-rule="nonzero"/></clipPath><clipPath id="af5c40fd99"><rect x="0" width="4" y="0" height="7"/></clipPath><clipPath id="e9aa5670f0"><path d="M 17.578125 15.214844 L 21.421875 15.214844 L 21.421875 18.910156 L 17.578125 18.910156 Z M 17.578125 15.214844 " clip-rule="nonzero"/></clipPath><clipPath id="01f2f9a690"><path d="M 19.222656 15.503906 C 21.429688 18.074219 21.207031 18.734375 20.988281 18.808594 C 20.695312 18.957031 19.738281 18.148438 19.8125 17.925781 C 19.8125 17.707031 20.765625 17.265625 21.0625 17.414062 C 21.28125 17.558594 21.503906 18.148438 21.355469 18.367188 C 21.28125 18.660156 20.695312 18.957031 20.253906 18.882812 C 19.59375 18.734375 17.902344 17.191406 17.679688 16.457031 C 17.535156 16.015625 17.609375 15.429688 17.902344 15.28125 C 18.121094 15.0625 19.222656 15.503906 19.222656 15.503906 " clip-rule="nonzero"/></clipPath><clipPath id="ffd59f954f"><path d="M 0.578125 0.214844 L 4.421875 0.214844 L 4.421875 3.910156 L 0.578125 3.910156 Z M 0.578125 0.214844 " clip-rule="nonzero"/></clipPath><clipPath id="67cbe0fe14"><path d="M 2.222656 0.503906 C 4.429688 3.074219 4.207031 3.734375 3.988281 3.808594 C 3.695312 3.957031 2.738281 3.148438 2.8125 2.925781 C 2.8125 2.707031 3.765625 2.265625 4.0625 2.414062 C 4.28125 2.558594 4.503906 3.148438 4.355469 3.367188 C 4.28125 3.660156 3.695312 3.957031 3.253906 3.882812 C 2.59375 3.734375 0.902344 2.191406 0.679688 1.457031 C 0.535156 1.015625 0.609375 0.429688 0.902344 0.28125 C 1.121094 0.0625 2.222656 0.503906 2.222656 0.503906 " clip-rule="nonzero"/></clipPath><clipPath id="499f627977"><rect x="0" width="5" y="0" height="4"/></clipPath><clipPath id="97603a09fd"><path d="M 24.417969 24.445312 L 30.84375 24.445312 L 30.84375 27.5 L 24.417969 27.5 Z M 24.417969 24.445312 " clip-rule="nonzero"/></clipPath><clipPath id="588b7c2411"><path d="M 25.691406 24.464844 C 30.832031 26.230469 30.90625 26.890625 30.6875 27.109375 C 30.613281 27.332031 29.949219 27.550781 29.730469 27.402344 C 29.511719 27.257812 29.4375 26.007812 29.65625 25.859375 C 29.804688 25.789062 30.832031 26.523438 30.832031 26.742188 C 30.90625 27.035156 30.539062 27.332031 30.097656 27.402344 C 29.214844 27.699219 26.058594 26.964844 25.175781 26.375 C 24.734375 26.082031 24.441406 25.640625 24.441406 25.273438 C 24.515625 24.980469 25.691406 24.464844 25.691406 24.464844 " clip-rule="nonzero"/></clipPath><clipPath id="2c1e6c71d5"><path d="M 0.417969 0.449219 L 6.84375 0.449219 L 6.84375 3.5 L 0.417969 3.5 Z M 0.417969 0.449219 " clip-rule="nonzero"/></clipPath><clipPath id="77005827e1"><path d="M 1.691406 0.464844 C 6.832031 2.230469 6.90625 2.890625 6.6875 3.109375 C 6.613281 3.332031 5.949219 3.550781 5.730469 3.402344 C 5.511719 3.257812 5.4375 2.007812 5.65625 1.859375 C 5.804688 1.789062 6.832031 2.523438 6.832031 2.742188 C 6.90625 3.035156 6.539062 3.332031 6.097656 3.402344 C 5.214844 3.699219 2.058594 2.964844 1.175781 2.375 C 0.734375 2.082031 0.441406 1.640625 0.441406 1.273438 C 0.515625 0.980469 1.691406 0.464844 1.691406 0.464844 " clip-rule="nonzero"/></clipPath><clipPath id="a41fbe259d"><rect x="0" width="7" y="0" height="4"/></clipPath><clipPath id="3d40d2cdf5"><path d="M 28 23 L 34 23 L 34 29 L 28 29 Z M 28 23 " clip-rule="nonzero"/></clipPath><clipPath id="a9042207fe"><path d="M 32.855469 23.664062 L 33.894531 26.464844 L 28.621094 28.417969 L 27.585938 25.613281 Z M 32.855469 23.664062 " clip-rule="nonzero"/></clipPath><clipPath id="b415abec92"><path d="M 32.878906 25.476562 C 28.957031 28.417969 28.550781 28.175781 28.449219 27.902344 C 28.347656 27.625 28.695312 26.871094 28.902344 26.792969 C 29.203125 26.761719 30.066406 27.617188 29.980469 27.804688 C 29.921875 28.0625 28.714844 28.195312 28.476562 27.96875 C 28.355469 27.859375 28.410156 27.367188 28.582031 26.988281 C 29 26.210938 30.984375 24.378906 31.8125 24.070312 C 32.292969 23.894531 32.785156 23.945312 33.023438 24.171875 C 33.195312 24.421875 32.878906 25.476562 32.878906 25.476562 " clip-rule="nonzero"/></clipPath><clipPath id="cc0894a59a"><path d="M 0.230469 0.746094 L 5.402344 0.746094 L 5.402344 5.449219 L 0.230469 5.449219 Z M 0.230469 0.746094 " clip-rule="nonzero"/></clipPath><clipPath id="2bc31abcda"><path d="M 4.855469 0.664062 L 5.894531 3.464844 L 0.621094 5.417969 L -0.414062 2.613281 Z M 4.855469 0.664062 " clip-rule="nonzero"/></clipPath><clipPath id="e28dc5a4c8"><path d="M 4.878906 2.476562 C 0.957031 5.417969 0.550781 5.175781 0.449219 4.902344 C 0.347656 4.625 0.695312 3.871094 0.902344 3.792969 C 1.203125 3.761719 2.066406 4.617188 1.980469 4.804688 C 1.921875 5.0625 0.714844 5.195312 0.476562 4.96875 C 0.355469 4.859375 0.410156 4.367188 0.582031 3.988281 C 1 3.210938 2.984375 1.378906 3.8125 1.070312 C 4.292969 0.894531 4.785156 0.945312 5.023438 1.171875 C 5.195312 1.421875 4.878906 2.476562 4.878906 2.476562 " clip-rule="nonzero"/></clipPath><clipPath id="3c1c97dbbb"><rect x="0" width="6" y="0" height="6"/></clipPath><clipPath id="5b1412c30c"><path d="M 25 17 L 28 17 L 28 25 L 25 25 Z M 25 17 " clip-rule="nonzero"/></clipPath><clipPath id="c7582113cd"><path d="M 27.039062 17.667969 L 29.269531 23.691406 L 26.402344 24.753906 L 24.171875 18.726562 Z M 27.039062 17.667969 " clip-rule="nonzero"/></clipPath><clipPath id="cb637ea08a"><path d="M 27.457031 18.867188 C 27.589844 24.300781 26.996094 24.597656 26.710938 24.46875 C 26.480469 24.476562 26.042969 23.933594 26.105469 23.675781 C 26.167969 23.417969 27.3125 22.914062 27.527344 23.070312 C 27.644531 23.183594 27.3125 24.402344 27.109375 24.480469 C 26.859375 24.648438 26.453125 24.40625 26.234375 24.019531 C 25.652344 23.296875 25.242188 20.078125 25.488281 19.046875 C 25.609375 18.53125 25.921875 18.101562 26.265625 17.976562 C 26.566406 17.941406 27.457031 18.867188 27.457031 18.867188 " clip-rule="nonzero"/></clipPath><clipPath id="4bbc7d33c6"><path d="M 0.175781 0.867188 L 2.761719 0.867188 L 2.761719 7.6875 L 0.175781 7.6875 Z M 0.175781 0.867188 " clip-rule="nonzero"/></clipPath><clipPath id="d791b6f4e4"><path d="M 2.039062 0.667969 L 4.269531 6.691406 L 1.402344 7.753906 L -0.828125 1.726562 Z M 2.039062 0.667969 " clip-rule="nonzero"/></clipPath><clipPath id="814b82db68"><path d="M 2.457031 1.867188 C 2.589844 7.300781 1.996094 7.597656 1.710938 7.46875 C 1.480469 7.476562 1.042969 6.933594 1.105469 6.675781 C 1.167969 6.417969 2.3125 5.914062 2.527344 6.070312 C 2.644531 6.183594 2.3125 7.402344 2.109375 7.480469 C 1.859375 7.648438 1.453125 7.40625 1.234375 7.019531 C 0.652344 6.296875 0.242188 3.078125 0.488281 2.046875 C 0.609375 1.53125 0.921875 1.101562 1.265625 0.976562 C 1.566406 0.941406 2.457031 1.867188 2.457031 1.867188 " clip-rule="nonzero"/></clipPath><clipPath id="7af7578485"><rect x="0" width="3" y="0" height="8"/></clipPath><clipPath id="37f54e860e"><path d="M 21 14 L 29 14 L 29 18 L 21 18 Z M 21 14 " clip-rule="nonzero"/></clipPath><clipPath id="c7b73dba69"><path d="M 28.074219 13.105469 L 29.066406 15.78125 L 22.203125 18.324219 L 21.210938 15.648438 Z M 28.074219 13.105469 " clip-rule="nonzero"/></clipPath><clipPath id="dd760c5d62"><path d="M 28.015625 16.152344 C 21.71875 16.917969 21.378906 16.417969 21.414062 16.089844 C 21.40625 15.859375 21.878906 15.449219 22.113281 15.441406 C 22.414062 15.40625 23.011719 15.96875 23.019531 16.199219 C 23.054688 16.503906 22.191406 17.136719 21.933594 17.074219 C 21.746094 16.988281 21.414062 16.089844 21.585938 15.714844 C 21.871094 15.214844 23.515625 15 24.601562 14.753906 C 25.753906 14.484375 27.5 13.914062 28.164062 14.21875 C 28.539062 14.394531 28.863281 15.054688 28.828125 15.382812 C 28.765625 15.640625 28.015625 16.152344 28.015625 16.152344 " clip-rule="nonzero"/></clipPath><clipPath id="308921b0d4"><path d="M 0.179688 0 L 7.9375 0 L 7.9375 3.164062 L 0.179688 3.164062 Z M 0.179688 0 " clip-rule="nonzero"/></clipPath><clipPath id="d1f4410c0a"><path d="M 7.074219 -0.894531 L 8.066406 1.78125 L 1.203125 4.324219 L 0.210938 1.648438 Z M 7.074219 -0.894531 " clip-rule="nonzero"/></clipPath><clipPath id="d0c65c97bd"><path d="M 7.015625 2.152344 C 0.71875 2.917969 0.378906 2.417969 0.414062 2.089844 C 0.40625 1.859375 0.878906 1.449219 1.113281 1.441406 C 1.414062 1.40625 2.011719 1.96875 2.019531 2.199219 C 2.054688 2.503906 1.191406 3.136719 0.933594 3.074219 C 0.746094 2.988281 0.414062 2.089844 0.585938 1.714844 C 0.871094 1.214844 2.515625 1 3.601562 0.753906 C 4.753906 0.484375 6.5 -0.0859375 7.164062 0.21875 C 7.539062 0.394531 7.863281 1.054688 7.828125 1.382812 C 7.765625 1.640625 7.015625 2.152344 7.015625 2.152344 " clip-rule="nonzero"/></clipPath><clipPath id="53486df9ec"><rect x="0" width="8" y="0" height="4"/></clipPath><clipPath id="0d1675d178"><path d="M 28 20 L 35 20 L 35 24 L 28 24 Z M 28 20 " clip-rule="nonzero"/></clipPath><clipPath id="c936dba2f3"><path d="M 33.664062 19.964844 L 34.5 22.214844 L 29.4375 24.089844 L 28.601562 21.839844 Z M 33.664062 19.964844 " clip-rule="nonzero"/></clipPath><clipPath id="0f272f1f48"><path d="M 33.460938 22.59375 C 29.324219 23.265625 28.960938 22.929688 28.957031 22.695312 C 28.921875 22.394531 29.992188 21.6875 30.179688 21.773438 C 30.300781 21.886719 30.292969 23.140625 30.042969 23.3125 C 29.835938 23.386719 29.226562 23.222656 29.058594 22.972656 C 28.910156 22.792969 28.984375 22.136719 29.320312 21.777344 C 29.8125 21.203125 32.09375 20.59375 32.980469 20.660156 C 33.46875 20.710938 34.035156 20.972656 34.136719 21.25 C 34.265625 21.59375 33.460938 22.59375 33.460938 22.59375 " clip-rule="nonzero"/></clipPath><clipPath id="990ff8ec06"><path d="M 0.703125 0.453125 L 6.34375 0.453125 L 6.34375 3.511719 L 0.703125 3.511719 Z M 0.703125 0.453125 " clip-rule="nonzero"/></clipPath><clipPath id="5c90c3f2bf"><path d="M 5.664062 -0.0351562 L 6.5 2.214844 L 1.4375 4.089844 L 0.601562 1.839844 Z M 5.664062 -0.0351562 " clip-rule="nonzero"/></clipPath><clipPath id="b0982c172e"><path d="M 5.460938 2.59375 C 1.324219 3.265625 0.960938 2.929688 0.957031 2.695312 C 0.921875 2.394531 1.992188 1.6875 2.179688 1.773438 C 2.300781 1.886719 2.292969 3.140625 2.042969 3.3125 C 1.835938 3.386719 1.226562 3.222656 1.058594 2.972656 C 0.910156 2.792969 0.984375 2.136719 1.320312 1.777344 C 1.8125 1.203125 4.09375 0.59375 4.980469 0.660156 C 5.46875 0.710938 6.035156 0.972656 6.136719 1.25 C 6.265625 1.59375 5.460938 2.59375 5.460938 2.59375 " clip-rule="nonzero"/></clipPath><clipPath id="c51cdd7d49"><rect x="0" width="7" y="0" height="4"/></clipPath><clipPath id="351c4b567e"><path d="M 26 14 L 33 14 L 33 18 L 26 18 Z M 26 14 " clip-rule="nonzero"/></clipPath><clipPath id="4e9c0ab72f"><path d="M 31.714844 13.78125 L 32.589844 16.144531 L 27.097656 18.179688 L 26.222656 15.816406 Z M 31.714844 13.78125 " clip-rule="nonzero"/></clipPath><clipPath id="8a147b9006"><path d="M 31.574219 16.015625 C 27.332031 17.898438 26.957031 17.722656 26.878906 17.515625 C 26.777344 17.242188 27.511719 16.265625 27.746094 16.257812 C 27.933594 16.34375 28.296875 17.539062 28.074219 17.78125 C 27.960938 17.898438 27.265625 17.921875 27.121094 17.742188 C 26.90625 17.585938 26.769531 17.007812 26.917969 16.5625 C 27.335938 15.78125 29.703125 14.355469 30.675781 14.230469 C 31.183594 14.121094 31.792969 14.285156 31.964844 14.539062 C 32.160156 14.855469 31.574219 16.015625 31.574219 16.015625 " clip-rule="nonzero"/></clipPath><clipPath id="8ff4e9f7b3"><path d="M 0.585938 0.105469 L 6.230469 0.105469 L 6.230469 4 L 0.585938 4 Z M 0.585938 0.105469 " clip-rule="nonzero"/></clipPath><clipPath id="2ba5e203d3"><path d="M 5.714844 -0.21875 L 6.589844 2.144531 L 1.097656 4.179688 L 0.222656 1.816406 Z M 5.714844 -0.21875 " clip-rule="nonzero"/></clipPath><clipPath id="84f06cabdd"><path d="M 5.574219 2.015625 C 1.332031 3.898438 0.957031 3.722656 0.878906 3.515625 C 0.777344 3.242188 1.511719 2.265625 1.746094 2.257812 C 1.933594 2.34375 2.296875 3.539062 2.074219 3.78125 C 1.960938 3.898438 1.265625 3.921875 1.121094 3.742188 C 0.90625 3.585938 0.769531 3.007812 0.917969 2.5625 C 1.335938 1.78125 3.703125 0.355469 4.675781 0.230469 C 5.183594 0.121094 5.792969 0.285156 5.964844 0.539062 C 6.160156 0.855469 5.574219 2.015625 5.574219 2.015625 " clip-rule="nonzero"/></clipPath><clipPath id="1a53dd8317"><rect x="0" width="7" y="0" height="4"/></clipPath><clipPath id="f95dfd1ef8"><path d="M 31 16 L 35 16 L 35 21 L 31 21 Z M 31 16 " clip-rule="nonzero"/></clipPath><clipPath id="3951426dab"><path d="M 33.765625 16.03125 L 35.101562 19.636719 L 31.636719 20.917969 L 30.300781 17.3125 Z M 33.765625 16.03125 " clip-rule="nonzero"/></clipPath><clipPath id="3a19ab3d84"><path d="M 34.070312 17.675781 C 32.421875 20.632812 31.726562 20.65625 31.582031 20.476562 C 31.339844 20.25 31.765625 19.074219 32 19.066406 C 32.207031 18.992188 32.949219 19.734375 32.914062 20.0625 C 32.855469 20.320312 32.378906 20.730469 32.121094 20.667969 C 31.820312 20.699219 31.339844 20.25 31.257812 19.8125 C 31.164062 19.140625 32.023438 17.023438 32.636719 16.558594 C 33 16.269531 33.578125 16.132812 33.816406 16.359375 C 34.097656 16.488281 34.070312 17.675781 34.070312 17.675781 " clip-rule="nonzero"/></clipPath><clipPath id="7a96dd0b50"><path d="M 0.0546875 0 L 3.109375 0 L 3.109375 4.925781 L 0.0546875 4.925781 Z M 0.0546875 0 " clip-rule="nonzero"/></clipPath><clipPath id="220e927d5e"><path d="M 2.765625 0.03125 L 4.101562 3.636719 L 0.636719 4.917969 L -0.699219 1.3125 Z M 2.765625 0.03125 " clip-rule="nonzero"/></clipPath><clipPath id="2f45e5e14a"><path d="M 3.070312 1.675781 C 1.421875 4.632812 0.726562 4.65625 0.582031 4.476562 C 0.339844 4.25 0.765625 3.074219 1 3.066406 C 1.207031 2.992188 1.949219 3.734375 1.914062 4.0625 C 1.855469 4.320312 1.378906 4.730469 1.121094 4.667969 C 0.820312 4.699219 0.339844 4.25 0.257812 3.8125 C 0.164062 3.140625 1.023438 1.023438 1.636719 0.558594 C 2 0.269531 2.578125 0.132812 2.816406 0.359375 C 3.097656 0.488281 3.070312 1.675781 3.070312 1.675781 " clip-rule="nonzero"/></clipPath><clipPath id="e5cf3acdea"><rect x="0" width="4" y="0" height="5"/></clipPath><clipPath id="adec87b9ce"><path d="M 26 12 L 30 12 L 30 19 L 26 19 Z M 26 12 " clip-rule="nonzero"/></clipPath><clipPath id="0d53209de5"><path d="M 26.074219 12.902344 L 29.035156 12.484375 L 29.824219 18.050781 L 26.863281 18.46875 Z M 26.074219 12.902344 " clip-rule="nonzero"/></clipPath><clipPath id="0500132cd7"><path d="M 27.855469 13.265625 C 29.898438 17.722656 29.574219 18.066406 29.285156 18.109375 C 28.992188 18.148438 28.328125 17.648438 28.296875 17.429688 C 28.328125 17.128906 29.347656 16.464844 29.515625 16.589844 C 29.753906 16.707031 29.625 17.910156 29.355469 18.097656 C 29.222656 18.191406 28.753906 18.035156 28.421875 17.785156 C 27.746094 17.210938 26.378906 14.882812 26.253906 14.011719 C 26.183594 13.5 26.339844 13.035156 26.609375 12.847656 C 26.890625 12.734375 27.855469 13.265625 27.855469 13.265625 " clip-rule="nonzero"/></clipPath><clipPath id="35ee226df5"><path d="M 0.117188 0.695312 L 3.878906 0.695312 L 3.878906 6.339844 L 0.117188 6.339844 Z M 0.117188 0.695312 " clip-rule="nonzero"/></clipPath><clipPath id="0781d0a436"><path d="M 0.0742188 0.902344 L 3.035156 0.484375 L 3.824219 6.050781 L 0.863281 6.46875 Z M 0.0742188 0.902344 " clip-rule="nonzero"/></clipPath><clipPath id="f34245d332"><path d="M 1.855469 1.265625 C 3.898438 5.722656 3.574219 6.066406 3.285156 6.109375 C 2.992188 6.148438 2.328125 5.648438 2.296875 5.429688 C 2.328125 5.128906 3.347656 4.464844 3.515625 4.589844 C 3.753906 4.707031 3.625 5.910156 3.355469 6.097656 C 3.222656 6.191406 2.753906 6.035156 2.421875 5.785156 C 1.746094 5.210938 0.378906 2.882812 0.253906 2.011719 C 0.183594 1.5 0.339844 1.035156 0.609375 0.847656 C 0.890625 0.734375 1.855469 1.265625 1.855469 1.265625 " clip-rule="nonzero"/></clipPath><clipPath id="ce5050fe50"><rect x="0" width="4" y="0" height="7"/></clipPath><clipPath id="32c2828b82"><path d="M 19 17 L 26 17 L 26 20 L 19 20 Z M 19 17 " clip-rule="nonzero"/></clipPath><clipPath id="b4dbe927e4"><path d="M 18.984375 17.320312 L 25.34375 16.417969 L 25.773438 19.445312 L 19.414062 20.34375 Z M 18.984375 17.320312 " clip-rule="nonzero"/></clipPath><clipPath id="7de392e6ea"><path d="M 20.246094 17.164062 C 25.585938 18.1875 25.75 18.832031 25.5625 19.082031 C 25.519531 19.308594 24.898438 19.621094 24.660156 19.503906 C 24.417969 19.390625 24.171875 18.164062 24.367188 17.988281 C 24.503906 17.894531 25.625 18.476562 25.65625 18.695312 C 25.769531 18.976562 25.449219 19.320312 25.023438 19.453125 C 24.191406 19.867188 20.960938 19.585938 20.003906 19.125 C 19.527344 18.898438 19.171875 18.503906 19.121094 18.136719 C 19.152344 17.835938 20.246094 17.164062 20.246094 17.164062 " clip-rule="nonzero"/></clipPath><clipPath id="7f4f760982"><path d="M 0.0625 0.164062 L 6.878906 0.164062 L 6.878906 2.984375 L 0.0625 2.984375 Z M 0.0625 0.164062 " clip-rule="nonzero"/></clipPath><clipPath id="8d9ed5201d"><path d="M -0.015625 0.320312 L 6.34375 -0.582031 L 6.773438 2.445312 L 0.414062 3.34375 Z M -0.015625 0.320312 " clip-rule="nonzero"/></clipPath><clipPath id="e830f6092a"><path d="M 1.246094 0.164062 C 6.585938 1.1875 6.75 1.832031 6.5625 2.082031 C 6.519531 2.308594 5.898438 2.621094 5.660156 2.503906 C 5.417969 2.390625 5.171875 1.164062 5.367188 0.988281 C 5.503906 0.894531 6.625 1.476562 6.65625 1.695312 C 6.769531 1.976562 6.449219 2.320312 6.023438 2.453125 C 5.191406 2.867188 1.960938 2.585938 1.003906 2.125 C 0.527344 1.898438 0.171875 1.503906 0.121094 1.136719 C 0.152344 0.835938 1.246094 0.164062 1.246094 0.164062 " clip-rule="nonzero"/></clipPath><clipPath id="28926d1c22"><rect x="0" width="7" y="0" height="3"/></clipPath><clipPath id="9e2356b018"><path d="M 15 15 L 18 15 L 18 23 L 15 23 Z M 15 15 " clip-rule="nonzero"/></clipPath><clipPath id="09d7e32f19"><path d="M 14.746094 15.332031 L 17.574219 14.933594 L 18.597656 22.179688 L 15.773438 22.582031 Z M 14.746094 15.332031 " clip-rule="nonzero"/></clipPath><clipPath id="9c88a172fc"><path d="M 17.710938 16.039062 C 17.121094 22.355469 16.5625 22.582031 16.25 22.476562 C 16.019531 22.4375 15.71875 21.886719 15.761719 21.65625 C 15.792969 21.355469 16.46875 20.886719 16.699219 20.929688 C 17 20.960938 17.433594 21.9375 17.320312 22.179688 C 17.195312 22.34375 16.25 22.476562 15.917969 22.226562 C 15.492188 21.84375 15.628906 20.191406 15.621094 19.078125 C 15.601562 17.894531 15.414062 16.066406 15.851562 15.484375 C 16.101562 15.152344 16.820312 14.976562 17.128906 15.082031 C 17.371094 15.195312 17.710938 16.039062 17.710938 16.039062 " clip-rule="nonzero"/></clipPath><clipPath id="39260084e7"><path d="M 0.300781 0 L 2.886719 0 L 2.886719 7.804688 L 0.300781 7.804688 Z M 0.300781 0 " clip-rule="nonzero"/></clipPath><clipPath id="e1be60cc47"><path d="M -0.253906 0.332031 L 2.574219 -0.0664062 L 3.597656 7.179688 L 0.773438 7.582031 Z M -0.253906 0.332031 " clip-rule="nonzero"/></clipPath><clipPath id="bf030ddc7c"><path d="M 2.710938 1.039062 C 2.121094 7.355469 1.5625 7.582031 1.25 7.476562 C 1.019531 7.4375 0.71875 6.886719 0.761719 6.65625 C 0.792969 6.355469 1.46875 5.886719 1.699219 5.929688 C 2 5.960938 2.433594 6.9375 2.320312 7.179688 C 2.195312 7.34375 1.25 7.476562 0.917969 7.226562 C 0.492188 6.84375 0.628906 5.191406 0.621094 4.078125 C 0.601562 2.894531 0.414062 1.066406 0.851562 0.484375 C 1.101562 0.152344 1.820312 -0.0234375 2.128906 0.0820312 C 2.371094 0.195312 2.710938 1.039062 2.710938 1.039062 " clip-rule="nonzero"/></clipPath><clipPath id="d562de15f2"><rect x="0" width="3" y="0" height="8"/></clipPath><clipPath id="3e5e344613"><path d="M 23 11 L 26 11 L 26 17 L 23 17 Z M 23 11 " clip-rule="nonzero"/></clipPath><clipPath id="89a04e73e3"><path d="M 22.636719 11.332031 L 25.011719 10.992188 L 25.769531 16.339844 L 23.394531 16.675781 Z M 22.636719 11.332031 " clip-rule="nonzero"/></clipPath><clipPath id="63f0fb0b6b"><path d="M 25.164062 12.089844 C 24.941406 16.273438 24.535156 16.554688 24.308594 16.511719 C 24.007812 16.480469 23.542969 15.285156 23.664062 15.121094 C 23.800781 15.027344 25.027344 15.296875 25.140625 15.578125 C 25.171875 15.796875 24.878906 16.359375 24.597656 16.472656 C 24.390625 16.574219 23.769531 16.367188 23.488281 15.960938 C 23.03125 15.359375 22.921875 13 23.171875 12.148438 C 23.328125 11.679688 23.703125 11.183594 23.992188 11.140625 C 24.355469 11.089844 25.164062 12.089844 25.164062 12.089844 " clip-rule="nonzero"/></clipPath><clipPath id="587208cb1a"><path d="M 0 0.0507812 L 2.175781 0.0507812 L 2.175781 5.691406 L 0 5.691406 Z M 0 0.0507812 " clip-rule="nonzero"/></clipPath><clipPath id="4cde7df8ff"><path d="M -0.363281 0.332031 L 2.011719 -0.0078125 L 2.769531 5.339844 L 0.394531 5.675781 Z M -0.363281 0.332031 " clip-rule="nonzero"/></clipPath><clipPath id="c281063467"><path d="M 2.164062 1.089844 C 1.941406 5.273438 1.535156 5.554688 1.308594 5.511719 C 1.007812 5.480469 0.542969 4.285156 0.664062 4.121094 C 0.800781 4.027344 2.027344 4.296875 2.140625 4.578125 C 2.171875 4.796875 1.878906 5.359375 1.597656 5.472656 C 1.390625 5.574219 0.769531 5.367188 0.488281 4.960938 C 0.03125 4.359375 -0.078125 2 0.171875 1.148438 C 0.328125 0.679688 0.703125 0.183594 0.992188 0.140625 C 1.355469 0.0898438 2.164062 1.089844 2.164062 1.089844 " clip-rule="nonzero"/></clipPath><clipPath id="b364b31529"><rect x="0" width="3" y="0" height="6"/></clipPath><clipPath id="a6c14e21a8"><path d="M 16 11 L 20 11 L 20 18 L 16 18 Z M 16 11 " clip-rule="nonzero"/></clipPath><clipPath id="073ba889d7"><path d="M 16.175781 11.925781 L 18.671875 11.570312 L 19.492188 17.367188 L 17 17.722656 Z M 16.175781 11.925781 " clip-rule="nonzero"/></clipPath><clipPath id="aeb981ce9e"><path d="M 18.328125 12.535156 C 19.269531 17.078125 19.019531 17.410156 18.800781 17.441406 C 18.507812 17.484375 17.710938 16.558594 17.753906 16.328125 C 17.875 16.164062 19.125 16.058594 19.3125 16.332031 C 19.402344 16.464844 19.277344 17.152344 19.070312 17.253906 C 18.871094 17.429688 18.28125 17.441406 17.875 17.203125 C 17.199219 16.628906 16.308594 14.011719 16.394531 13.035156 C 16.394531 12.515625 16.6875 11.953125 16.96875 11.839844 C 17.320312 11.714844 18.328125 12.535156 18.328125 12.535156 " clip-rule="nonzero"/></clipPath><clipPath id="dcbf573c67"><path d="M 0.242188 0.519531 L 3.53125 0.519531 L 3.53125 6.632812 L 0.242188 6.632812 Z M 0.242188 0.519531 " clip-rule="nonzero"/></clipPath><clipPath id="c7267085f0"><path d="M 0.175781 0.925781 L 2.671875 0.570312 L 3.492188 6.367188 L 1 6.722656 Z M 0.175781 0.925781 " clip-rule="nonzero"/></clipPath><clipPath id="21dd5278f7"><path d="M 2.328125 1.535156 C 3.269531 6.078125 3.019531 6.410156 2.800781 6.441406 C 2.507812 6.484375 1.710938 5.558594 1.753906 5.328125 C 1.875 5.164062 3.125 5.058594 3.3125 5.332031 C 3.402344 5.464844 3.277344 6.152344 3.070312 6.253906 C 2.871094 6.429688 2.28125 6.441406 1.875 6.203125 C 1.199219 5.628906 0.308594 3.011719 0.394531 2.035156 C 0.394531 1.515625 0.6875 0.953125 0.96875 0.839844 C 1.320312 0.714844 2.328125 1.535156 2.328125 1.535156 " clip-rule="nonzero"/></clipPath><clipPath id="0b0a504fc7"><rect x="0" width="4" y="0" height="7"/></clipPath><clipPath id="dfc2e3087f"><path d="M 18 10 L 24 10 L 24 14 L 18 14 Z M 18 10 " clip-rule="nonzero"/></clipPath><clipPath id="18fe2d18f1"><path d="M 18.8125 10.398438 L 22.617188 9.859375 L 23.132812 13.515625 L 19.328125 14.054688 Z M 18.8125 10.398438 " clip-rule="nonzero"/></clipPath><clipPath id="cb65d30383"><path d="M 20.480469 10.453125 C 23.023438 12.6875 22.898438 13.375 22.691406 13.476562 C 22.421875 13.664062 21.359375 12.996094 21.402344 12.769531 C 21.371094 12.550781 22.257812 11.980469 22.566406 12.085938 C 22.804688 12.199219 23.105469 12.75 22.992188 12.988281 C 22.960938 13.289062 22.421875 13.664062 21.972656 13.652344 C 21.296875 13.601562 19.410156 12.308594 19.085938 11.613281 C 18.878906 11.199219 18.871094 10.605469 19.140625 10.417969 C 19.328125 10.167969 20.480469 10.453125 20.480469 10.453125 " clip-rule="nonzero"/></clipPath><clipPath id="fb47e7dbce"><path d="M 0.828125 0.109375 L 5.292969 0.109375 L 5.292969 3.871094 L 0.828125 3.871094 Z M 0.828125 0.109375 " clip-rule="nonzero"/></clipPath><clipPath id="30024626dd"><path d="M 0.8125 0.398438 L 4.617188 -0.140625 L 5.132812 3.515625 L 1.328125 4.054688 Z M 0.8125 0.398438 " clip-rule="nonzero"/></clipPath><clipPath id="0ccc575c50"><path d="M 2.480469 0.453125 C 5.023438 2.6875 4.898438 3.375 4.691406 3.476562 C 4.421875 3.664062 3.359375 2.996094 3.402344 2.769531 C 3.371094 2.550781 4.257812 1.980469 4.566406 2.085938 C 4.804688 2.199219 5.105469 2.75 4.992188 2.988281 C 4.960938 3.289062 4.421875 3.664062 3.972656 3.652344 C 3.296875 3.601562 1.410156 2.308594 1.085938 1.613281 C 0.878906 1.199219 0.871094 0.605469 1.140625 0.417969 C 1.328125 0.167969 2.480469 0.453125 2.480469 0.453125 " clip-rule="nonzero"/></clipPath><clipPath id="03274d29d9"><rect x="0" width="6" y="0" height="4"/></clipPath></defs><g clip-path="url(#d406e11aac)"><g clip-path="url(#cf103391c7)"><g transform="matrix(1, 0, 0, 1, 17, 17)"><g clip-path="url(#ae68520a03)"><g clip-path="url(#ee50f33a83)"><g clip-path="url(#e9910395df)"><rect x="-27.56" width="69.12" fill="#e7c873" height="69.120001" y="-27.56" fill-opacity="1"/></g></g></g></g></g></g><g clip-path="url(#9439f31c70)"><g clip-path="url(#0b48d5a6bf)"><g transform="matrix(1, 0, 0, 1, 19, 17)"><g clip-path="url(#c17088f693)"><g clip-path="url(#92d4046926)"><g clip-path="url(#cda1ba03b5)"><rect x="-29.56" width="69.12" fill="#e7c873" height="69.120001" y="-27.56" fill-opacity="1"/></g></g></g></g></g></g><g clip-path="url(#f5442ac736)"><g clip-path="url(#9867bac975)"><g transform="matrix(1, 0, 0, 1, 20, 14)"><g clip-path="url(#725b01f183)"><g clip-path="url(#62ce75e62e)"><g clip-path="url(#ff71ecf6d7)"><rect x="-30.56" width="69.12" fill="#e7c873" height="69.120001" y="-24.56" fill-opacity="1"/></g></g></g></g></g></g><g clip-path="url(#c1c8bb42ca)"><g clip-path="url(#97997c3d0c)"><g transform="matrix(1, 0, 0, 1, 21, 20)"><g clip-path="url(#a217cb004b)"><g clip-path="url(#88622f9231)"><g clip-path="url(#477bf38e6e)"><rect x="-31.56" width="69.12" fill="#e7c873" height="69.120001" y="-30.56" fill-opacity="1"/></g></g></g></g></g></g><g clip-path="url(#d21dd03307)"><g clip-path="url(#278569caa9)"><g transform="matrix(1, 0, 0, 1, 27, 17)"><g clip-path="url(#98f8032271)"><g clip-path="url(#89abe174b7)"><g clip-path="url(#3e7eb95396)"><rect x="-37.56" width="69.12" fill="#e7c873" height="69.120001" y="-27.56" fill-opacity="1"/></g></g></g></g></g></g><g clip-path="url(#0fb8ea6f7c)"><g clip-path="url(#8e40f50e29)"><g transform="matrix(1, 0, 0, 1, 13, 25)"><g clip-path="url(#c624100762)"><g clip-path="url(#96d3a23a91)"><g clip-path="url(#bacebc0ebd)"><rect x="-23.56" width="69.12" fill="#e7c873" height="69.120001" y="-35.56" fill-opacity="1"/></g></g></g></g></g></g><g clip-path="url(#93791f0b20)"><g clip-path="url(#a7250c34d3)"><g transform="matrix(1, 0, 0, 1, 17, 23)"><g clip-path="url(#461980f21e)"><g clip-path="url(#08f31273d6)"><g clip-path="url(#500c589718)"><rect x="-27.56" width="69.12" fill="#e7c873" height="69.120001" y="-33.56" fill-opacity="1"/></g></g></g></g></g></g><g clip-path="url(#a8859800b6)"><g clip-path="url(#98200ba5c5)"><g transform="matrix(1, 0, 0, 1, 23, 24)"><g clip-path="url(#7f6e2cf796)"><g clip-path="url(#2e3509596a)"><g clip-path="url(#ea5ac71193)"><rect x="-33.56" width="69.12" fill="#e7c873" height="69.120001" y="-34.56" fill-opacity="1"/></g></g></g></g></g></g><g clip-path="url(#c7202b4aa3)"><g clip-path="url(#aa429f2c28)"><g transform="matrix(1, 0, 0, 1, 24, 18)"><g clip-path="url(#58c6e16047)"><g clip-path="url(#81858f094f)"><g clip-path="url(#eaf6bbf620)"><rect x="-34.56" width="69.12" fill="#e7c873" height="69.120001" y="-28.56" fill-opacity="1"/></g></g></g></g></g></g><g clip-path="url(#fe48a5791e)"><g clip-path="url(#69e16ca9e3)"><g transform="matrix(1, 0, 0, 1, 16, 22)"><g clip-path="url(#71b88329f4)"><g clip-path="url(#63573320a2)"><g clip-path="url(#e76c8937ff)"><rect x="-26.56" width="69.12" fill="#e7c873" height="69.120001" y="-32.56" fill-opacity="1"/></g></g></g></g></g></g><g clip-path="url(#b3e9205d7f)"><g clip-path="url(#55a407df61)"><g transform="matrix(1, 0, 0, 1, 12, 19)"><g clip-path="url(#78ce61a352)"><g clip-path="url(#eec83bb3c1)"><g clip-path="url(#88609a19b1)"><rect x="-22.56" width="69.12" fill="#e7c873" height="69.120001" y="-29.56" fill-opacity="1"/></g></g></g></g></g></g><g clip-path="url(#9d73cca119)"><g clip-path="url(#a12dd7fe49)"><g transform="matrix(1, 0, 0, 1, 21, 16)"><g clip-path="url(#77800a96ae)"><g clip-path="url(#06d709b2b3)"><g clip-path="url(#ec309d5ce5)"><rect x="-31.56" width="69.12" fill="#e7c873" height="69.120001" y="-26.56" fill-opacity="1"/></g></g></g></g></g></g><g clip-path="url(#bf313a3804)"><g clip-path="url(#393e1e285f)"><g transform="matrix(1, 0, 0, 1, 14, 16)"><g clip-path="url(#af5c40fd99)"><g clip-path="url(#12a2815e87)"><g clip-path="url(#82cc05177d)"><rect x="-24.56" width="69.12" fill="#e7c873" height="69.120001" y="-26.56" fill-opacity="1"/></g></g></g></g></g></g><g clip-path="url(#e9aa5670f0)"><g clip-path="url(#01f2f9a690)"><g transform="matrix(1, 0, 0, 1, 17, 15)"><g clip-path="url(#499f627977)"><g clip-path="url(#ffd59f954f)"><g clip-path="url(#67cbe0fe14)"><rect x="-27.56" width="69.12" fill="#e7c873" height="69.120001" y="-25.56" fill-opacity="1"/></g></g></g></g></g></g><g clip-path="url(#97603a09fd)"><g clip-path="url(#588b7c2411)"><g transform="matrix(1, 0, 0, 1, 24, 24)"><g clip-path="url(#a41fbe259d)"><g clip-path="url(#2c1e6c71d5)"><g clip-path="url(#77005827e1)"><rect x="-34.56" width="69.12" fill="#e7c873" height="69.120001" y="-34.56" fill-opacity="1"/></g></g></g></g></g></g><g clip-path="url(#3d40d2cdf5)"><g clip-path="url(#a9042207fe)"><g clip-path="url(#b415abec92)"><g transform="matrix(1, 0, 0, 1, 28, 23)"><g clip-path="url(#3c1c97dbbb)"><g clip-path="url(#cc0894a59a)"><g clip-path="url(#2bc31abcda)"><g clip-path="url(#e28dc5a4c8)"><path fill="#e7c873" d="M 6.582031 -3.085938 L 9.742188 5.457031 L -1.003906 9.433594 L -4.164062 0.890625 Z M 6.582031 -3.085938 " fill-opacity="1" fill-rule="nonzero"/></g></g></g></g></g></g></g></g><g clip-path="url(#5b1412c30c)"><g clip-path="url(#c7582113cd)"><g clip-path="url(#cb637ea08a)"><g transform="matrix(1, 0, 0, 1, 25, 17)"><g clip-path="url(#7af7578485)"><g clip-path="url(#4bbc7d33c6)"><g clip-path="url(#d791b6f4e4)"><g clip-path="url(#814b82db68)"><path fill="#e7c873" d="M 3.761719 -3.082031 L 8.039062 8.480469 L -0.296875 11.566406 L -4.578125 0.00390625 Z M 3.761719 -3.082031 " fill-opacity="1" fill-rule="nonzero"/></g></g></g></g></g></g></g></g><g clip-path="url(#37f54e860e)"><g clip-path="url(#c7b73dba69)"><g clip-path="url(#dd760c5d62)"><g transform="matrix(1, 0, 0, 1, 21, 14)"><g clip-path="url(#53486df9ec)"><g clip-path="url(#308921b0d4)"><g clip-path="url(#d1f4410c0a)"><g clip-path="url(#d0c65c97bd)"><path fill="#e7c873" d="M 8.773438 -4.53125 L 11.757812 3.53125 L -0.585938 8.101562 L -3.570312 0.0390625 Z M 8.773438 -4.53125 " fill-opacity="1" fill-rule="nonzero"/></g></g></g></g></g></g></g></g><g clip-path="url(#0d1675d178)"><g clip-path="url(#c936dba2f3)"><g clip-path="url(#0f272f1f48)"><g transform="matrix(1, 0, 0, 1, 28, 20)"><g clip-path="url(#c51cdd7d49)"><g clip-path="url(#990ff8ec06)"><g clip-path="url(#5c90c3f2bf)"><g clip-path="url(#b0982c172e)"><path fill="#e7c873" d="M 7.464844 -3.628906 L 10.269531 3.949219 L -0.328125 7.871094 L -3.132812 0.292969 Z M 7.464844 -3.628906 " fill-opacity="1" fill-rule="nonzero"/></g></g></g></g></g></g></g></g><g clip-path="url(#351c4b567e)"><g clip-path="url(#4e9c0ab72f)"><g clip-path="url(#8a147b9006)"><g transform="matrix(1, 0, 0, 1, 26, 14)"><g clip-path="url(#1a53dd8317)"><g clip-path="url(#8ff4e9f7b3)"><g clip-path="url(#2ba5e203d3)"><g clip-path="url(#84f06cabdd)"><path fill="#e7c873" d="M 7.445312 -3.929688 L 10.355469 3.925781 L -0.660156 8.003906 L -3.570312 0.148438 Z M 7.445312 -3.929688 " fill-opacity="1" fill-rule="nonzero"/></g></g></g></g></g></g></g></g><g clip-path="url(#f95dfd1ef8)"><g clip-path="url(#3951426dab)"><g clip-path="url(#3a19ab3d84)"><g transform="matrix(1, 0, 0, 1, 31, 16)"><g clip-path="url(#e5cf3acdea)"><g clip-path="url(#7a96dd0b50)"><g clip-path="url(#220e927d5e)"><g clip-path="url(#2f45e5e14a)"><path fill="#e7c873" d="M 4.476562 -3.625 L 7.816406 5.402344 L -1.140625 8.71875 L -4.480469 -0.308594 Z M 4.476562 -3.625 " fill-opacity="1" fill-rule="nonzero"/></g></g></g></g></g></g></g></g><g clip-path="url(#adec87b9ce)"><g clip-path="url(#0d53209de5)"><g clip-path="url(#0500132cd7)"><g transform="matrix(1, 0, 0, 1, 26, 12)"><g clip-path="url(#ce5050fe50)"><g clip-path="url(#35ee226df5)"><g clip-path="url(#0781d0a436)"><g clip-path="url(#f34245d332)"><path fill="#e7c873" d="M -3.222656 -1.578125 L 5.796875 -2.855469 L 7.40625 8.488281 L -1.613281 9.769531 Z M -3.222656 -1.578125 " fill-opacity="1" fill-rule="nonzero"/></g></g></g></g></g></g></g></g><g clip-path="url(#32c2828b82)"><g clip-path="url(#b4dbe927e4)"><g clip-path="url(#7de392e6ea)"><g transform="matrix(1, 0, 0, 1, 19, 17)"><g clip-path="url(#28926d1c22)"><g clip-path="url(#7f4f760982)"><g clip-path="url(#8d9ed5201d)"><g clip-path="url(#e830f6092a)"><path fill="#e7c873" d="M -3.3125 -2.160156 L 8.890625 -3.890625 L 10.140625 4.914062 L -2.066406 6.644531 Z M -3.3125 -2.160156 " fill-opacity="1" fill-rule="nonzero"/></g></g></g></g></g></g></g></g><g clip-path="url(#9e2356b018)"><g clip-path="url(#09d7e32f19)"><g clip-path="url(#9c88a172fc)"><g transform="matrix(1, 0, 0, 1, 15, 15)"><g clip-path="url(#d562de15f2)"><g clip-path="url(#39260084e7)"><g clip-path="url(#e1be60cc47)"><g clip-path="url(#bf030ddc7c)"><path fill="#e7c873" d="M -3.445312 -2.097656 L 5.0625 -3.304688 L 6.910156 9.730469 L -1.601562 10.933594 Z M -3.445312 -2.097656 " fill-opacity="1" fill-rule="nonzero"/></g></g></g></g></g></g></g></g><g clip-path="url(#3e5e344613)"><g clip-path="url(#89a04e73e3)"><g clip-path="url(#63f0fb0b6b)"><g transform="matrix(1, 0, 0, 1, 23, 11)"><g clip-path="url(#b364b31529)"><g clip-path="url(#587208cb1a)"><g clip-path="url(#4cde7df8ff)"><g clip-path="url(#c281063467)"><path fill="#e7c873" d="M -3.492188 -2.191406 L 4.507812 -3.324219 L 6.09375 7.863281 L -1.90625 9 Z M -3.492188 -2.191406 " fill-opacity="1" fill-rule="nonzero"/></g></g></g></g></g></g></g></g><g clip-path="url(#a6c14e21a8)"><g clip-path="url(#073ba889d7)"><g clip-path="url(#aeb981ce9e)"><g transform="matrix(1, 0, 0, 1, 16, 11)"><g clip-path="url(#0b0a504fc7)"><g clip-path="url(#dcbf573c67)"><g clip-path="url(#c7267085f0)"><g clip-path="url(#21dd5278f7)"><path fill="#e7c873" d="M -3.082031 -1.554688 L 5.210938 -2.730469 L 6.859375 8.898438 L -1.433594 10.074219 Z M -3.082031 -1.554688 " fill-opacity="1" fill-rule="nonzero"/></g></g></g></g></g></g></g></g><g clip-path="url(#dfc2e3087f)"><g clip-path="url(#18fe2d18f1)"><g clip-path="url(#cb65d30383)"><g transform="matrix(1, 0, 0, 1, 18, 10)"><g clip-path="url(#03274d29d9)"><g clip-path="url(#fb47e7dbce)"><g clip-path="url(#30024626dd)"><g clip-path="url(#0ccc575c50)"><path fill="#e7c873" d="M -2.398438 -2.046875 L 7.128906 -3.398438 L 8.472656 6.058594 L -1.058594 7.410156 Z M -2.398438 -2.046875 " fill-opacity="1" fill-rule="nonzero"/></g></g></g></g></g></g></g></g></svg>