<svg xmlns="http://www.w3.org/2000/svg" xmlns:xlink="http://www.w3.org/1999/xlink" width="64" zoomAndPan="magnify" viewBox="0 0 48 48" height="64" preserveAspectRatio="xMidYMid meet" version="1.0"><defs><clipPath id="54ddc4105f"><path d="M 16.261719 10.191406 L 33.0625 10.191406 L 33.0625 37.707031 L 16.261719 37.707031 Z M 16.261719 10.191406 " clip-rule="nonzero"/></clipPath><clipPath id="265f71a7e6"><path d="M 0.261719 0.191406 L 17.0625 0.191406 L 17.0625 27.707031 L 0.261719 27.707031 Z M 0.261719 0.191406 " clip-rule="nonzero"/></clipPath><clipPath id="f3db70d900"><rect x="0" width="18" y="0" height="28"/></clipPath><clipPath id="e42a1b5d66"><path d="M 17.582031 14.917969 L 31.703125 14.917969 L 31.703125 27.132812 L 17.582031 27.132812 Z M 17.582031 14.917969 " clip-rule="nonzero"/></clipPath><clipPath id="dc416a70b5"><path d="M 28.179688 27.132812 L 21.125 27.132812 L 17.597656 14.917969 L 31.703125 14.917969 Z M 28.179688 27.132812 " clip-rule="nonzero"/></clipPath><clipPath id="b522ce5b43"><path d="M 0.582031 0.917969 L 14.703125 0.917969 L 14.703125 13.132812 L 0.582031 13.132812 Z M 0.582031 0.917969 " clip-rule="nonzero"/></clipPath><clipPath id="45d84dc5cd"><path d="M 11.179688 13.132812 L 4.125 13.132812 L 0.597656 0.917969 L 14.703125 0.917969 Z M 11.179688 13.132812 " clip-rule="nonzero"/></clipPath><clipPath id="4ab3409bd3"><rect x="0" width="15" y="0" height="14"/></clipPath><clipPath id="e5cd0b2fc9"><path d="M 20.183594 12.042969 L 29.132812 12.042969 L 29.132812 17.769531 L 20.183594 17.769531 Z M 20.183594 12.042969 " clip-rule="nonzero"/></clipPath><clipPath id="c682d6cd36"><path d="M 26.894531 17.769531 L 22.425781 17.769531 L 20.1875 12.042969 L 29.132812 12.042969 Z M 26.894531 17.769531 " clip-rule="nonzero"/></clipPath><clipPath id="fdbdc465c4"><path d="M 0.183594 0.0429688 L 9.132812 0.0429688 L 9.132812 5.769531 L 0.183594 5.769531 Z M 0.183594 0.0429688 " clip-rule="nonzero"/></clipPath><clipPath id="8107ff77b1"><path d="M 6.894531 5.769531 L 2.425781 5.769531 L 0.1875 0.0429688 L 9.132812 0.0429688 Z M 6.894531 5.769531 " clip-rule="nonzero"/></clipPath><clipPath id="08b1e5a610"><rect x="0" width="10" y="0" height="6"/></clipPath></defs><g clip-path="url(#54ddc4105f)"><g transform="matrix(1, 0, 0, 1, 16, 10)"><g clip-path="url(#f3db70d900)"><g clip-path="url(#265f71a7e6)"><path fill="#c01414" d="M 0.261719 0.191406 L 17.0625 0.191406 L 17.0625 27.6875 L 0.261719 27.6875 Z M 0.261719 0.191406 " fill-opacity="1" fill-rule="nonzero"/></g></g></g></g><g clip-path="url(#e42a1b5d66)"><g clip-path="url(#dc416a70b5)"><g transform="matrix(1, 0, 0, 1, 17, 14)"><g clip-path="url(#4ab3409bd3)"><g clip-path="url(#b522ce5b43)"><g clip-path="url(#45d84dc5cd)"><path fill="#ffffff" d="M 14.703125 13.132812 L 0.582031 13.132812 L 0.582031 0.917969 L 14.703125 0.917969 Z M 14.703125 13.132812 " fill-opacity="1" fill-rule="nonzero"/></g></g></g></g></g></g><g clip-path="url(#e5cd0b2fc9)"><g clip-path="url(#c682d6cd36)"><g transform="matrix(1, 0, 0, 1, 20, 12)"><g clip-path="url(#08b1e5a610)"><g clip-path="url(#fdbdc465c4)"><g clip-path="url(#8107ff77b1)"><path fill="#ffffff" d="M 9.132812 5.769531 L 0.183594 5.769531 L 0.183594 0.0429688 L 9.132812 0.0429688 Z M 9.132812 5.769531 " fill-opacity="1" fill-rule="nonzero"/></g></g></g></g></g></g></svg>