<svg xmlns="http://www.w3.org/2000/svg" xmlns:xlink="http://www.w3.org/1999/xlink" width="64" zoomAndPan="magnify" viewBox="0 0 48 48" height="64" preserveAspectRatio="xMidYMid meet" version="1.0"><defs><clipPath id="845b868812"><path d="M 15.992188 4.703125 L 32.007812 4.703125 L 32.007812 39.621094 L 15.992188 39.621094 Z M 15.992188 4.703125 " clip-rule="nonzero"/></clipPath><clipPath id="ef85723c77"><path d="M 0.992188 0.703125 L 17.007812 0.703125 L 17.007812 35.621094 L 0.992188 35.621094 Z M 0.992188 0.703125 " clip-rule="nonzero"/></clipPath><clipPath id="bbc971a69d"><rect x="0" width="18" y="0" height="36"/></clipPath><clipPath id="385d26e706"><path d="M 16.929688 10.199219 L 31.042969 10.199219 L 31.042969 19.230469 L 16.929688 19.230469 Z M 16.929688 10.199219 " clip-rule="nonzero"/></clipPath><clipPath id="37a17e5ca8"><path d="M 27.515625 19.230469 L 20.464844 19.230469 L 16.9375 10.199219 L 31.042969 10.199219 Z M 27.515625 19.230469 " clip-rule="nonzero"/></clipPath><clipPath id="a0cb8dce15"><path d="M 0.929688 0.199219 L 15.042969 0.199219 L 15.042969 9.230469 L 0.929688 9.230469 Z M 0.929688 0.199219 " clip-rule="nonzero"/></clipPath><clipPath id="51f43e4dc1"><path d="M 11.515625 9.230469 L 4.464844 9.230469 L 0.9375 0.199219 L 15.042969 0.199219 Z M 11.515625 9.230469 " clip-rule="nonzero"/></clipPath><clipPath id="f8197fd505"><rect x="0" width="16" y="0" height="10"/></clipPath><clipPath id="09ff4b8c62"><path d="M 19.523438 7.332031 L 28.472656 7.332031 L 28.472656 13.058594 L 19.523438 13.058594 Z M 19.523438 7.332031 " clip-rule="nonzero"/></clipPath><clipPath id="d5eaf84565"><path d="M 26.234375 13.058594 L 21.761719 13.058594 L 19.527344 7.332031 L 28.472656 7.332031 Z M 26.234375 13.058594 " clip-rule="nonzero"/></clipPath><clipPath id="c82beec739"><path d="M 0.523438 0.332031 L 9.472656 0.332031 L 9.472656 6.058594 L 0.523438 6.058594 Z M 0.523438 0.332031 " clip-rule="nonzero"/></clipPath><clipPath id="66c309c22b"><path d="M 7.234375 6.058594 L 2.761719 6.058594 L 0.527344 0.332031 L 9.472656 0.332031 Z M 7.234375 6.058594 " clip-rule="nonzero"/></clipPath><clipPath id="48adf39f86"><rect x="0" width="10" y="0" height="7"/></clipPath></defs><g clip-path="url(#845b868812)"><g transform="matrix(1, 0, 0, 1, 15, 4)"><g clip-path="url(#bbc971a69d)"><g clip-path="url(#ef85723c77)"><path fill="#413c77" d="M 0.992188 0.703125 L 17.007812 0.703125 L 17.007812 35.617188 L 0.992188 35.617188 Z M 0.992188 0.703125 " fill-opacity="1" fill-rule="nonzero"/></g></g></g></g><g clip-path="url(#385d26e706)"><g clip-path="url(#37a17e5ca8)"><g transform="matrix(1, 0, 0, 1, 16, 10)"><g clip-path="url(#f8197fd505)"><g clip-path="url(#a0cb8dce15)"><g clip-path="url(#51f43e4dc1)"><path fill="#ffffff" d="M 15.042969 9.230469 L 0.929688 9.230469 L 0.929688 0.199219 L 15.042969 0.199219 Z M 15.042969 9.230469 " fill-opacity="1" fill-rule="nonzero"/></g></g></g></g></g></g><g clip-path="url(#09ff4b8c62)"><g clip-path="url(#d5eaf84565)"><g transform="matrix(1, 0, 0, 1, 19, 7)"><g clip-path="url(#48adf39f86)"><g clip-path="url(#c82beec739)"><g clip-path="url(#66c309c22b)"><path fill="#ffffff" d="M 9.472656 6.058594 L 0.523438 6.058594 L 0.523438 0.332031 L 9.472656 0.332031 Z M 9.472656 6.058594 " fill-opacity="1" fill-rule="nonzero"/></g></g></g></g></g></g></svg>