<svg xmlns="http://www.w3.org/2000/svg" xmlns:xlink="http://www.w3.org/1999/xlink" width="64" zoomAndPan="magnify" viewBox="0 0 48 48" height="64" preserveAspectRatio="xMidYMid meet" version="1.0"><defs><clipPath id="064afa0740"><path d="M 16.261719 10.023438 L 33.0625 10.023438 L 33.0625 38.421875 L 16.261719 38.421875 Z M 16.261719 10.023438 " clip-rule="nonzero"/></clipPath><clipPath id="d78e7878b9"><path d="M 0.261719 0.0234375 L 17.0625 0.0234375 L 17.0625 28.421875 L 0.261719 28.421875 Z M 0.261719 0.0234375 " clip-rule="nonzero"/></clipPath><clipPath id="64c271c8cf"><rect x="0" width="18" y="0" height="29"/></clipPath><clipPath id="e2caefaf04"><path d="M 17.589844 15.714844 L 31.703125 15.714844 L 31.703125 24.746094 L 17.589844 24.746094 Z M 17.589844 15.714844 " clip-rule="nonzero"/></clipPath><clipPath id="621b7cef73"><path d="M 28.179688 24.746094 L 21.125 24.746094 L 17.597656 15.714844 L 31.703125 15.714844 Z M 28.179688 24.746094 " clip-rule="nonzero"/></clipPath><clipPath id="f6173f03a8"><path d="M 0.589844 0.714844 L 14.703125 0.714844 L 14.703125 9.746094 L 0.589844 9.746094 Z M 0.589844 0.714844 " clip-rule="nonzero"/></clipPath><clipPath id="309381a405"><path d="M 11.179688 9.746094 L 4.125 9.746094 L 0.597656 0.714844 L 14.703125 0.714844 Z M 11.179688 9.746094 " clip-rule="nonzero"/></clipPath><clipPath id="56982e235d"><rect x="0" width="15" y="0" height="10"/></clipPath><clipPath id="2245c2ec72"><path d="M 20.183594 12.851562 L 29.132812 12.851562 L 29.132812 18.578125 L 20.183594 18.578125 Z M 20.183594 12.851562 " clip-rule="nonzero"/></clipPath><clipPath id="e94f60a13a"><path d="M 26.894531 18.578125 L 22.425781 18.578125 L 20.1875 12.851562 L 29.132812 12.851562 Z M 26.894531 18.578125 " clip-rule="nonzero"/></clipPath><clipPath id="569adb1f22"><path d="M 0.183594 0.851562 L 9.132812 0.851562 L 9.132812 6.578125 L 0.183594 6.578125 Z M 0.183594 0.851562 " clip-rule="nonzero"/></clipPath><clipPath id="073cd39a62"><path d="M 6.894531 6.578125 L 2.425781 6.578125 L 0.1875 0.851562 L 9.132812 0.851562 Z M 6.894531 6.578125 " clip-rule="nonzero"/></clipPath><clipPath id="8a34ea2a9a"><rect x="0" width="10" y="0" height="7"/></clipPath></defs><g clip-path="url(#064afa0740)"><g transform="matrix(1, 0, 0, 1, 16, 10)"><g clip-path="url(#64c271c8cf)"><g clip-path="url(#d78e7878b9)"><path fill="#d9ac2f" d="M 0.261719 0.0234375 L 17.0625 0.0234375 L 17.0625 28.4375 L 0.261719 28.4375 Z M 0.261719 0.0234375 " fill-opacity="1" fill-rule="nonzero"/></g></g></g></g><g clip-path="url(#e2caefaf04)"><g clip-path="url(#621b7cef73)"><g transform="matrix(1, 0, 0, 1, 17, 15)"><g clip-path="url(#56982e235d)"><g clip-path="url(#f6173f03a8)"><g clip-path="url(#309381a405)"><path fill="#ffffff" d="M 14.703125 9.746094 L 0.589844 9.746094 L 0.589844 0.714844 L 14.703125 0.714844 Z M 14.703125 9.746094 " fill-opacity="1" fill-rule="nonzero"/></g></g></g></g></g></g><g clip-path="url(#2245c2ec72)"><g clip-path="url(#e94f60a13a)"><g transform="matrix(1, 0, 0, 1, 20, 12)"><g clip-path="url(#8a34ea2a9a)"><g clip-path="url(#569adb1f22)"><g clip-path="url(#073cd39a62)"><path fill="#ffffff" d="M 9.132812 6.578125 L 0.183594 6.578125 L 0.183594 0.851562 L 9.132812 0.851562 Z M 9.132812 6.578125 " fill-opacity="1" fill-rule="nonzero"/></g></g></g></g></g></g></svg>