<svg xmlns="http://www.w3.org/2000/svg" xmlns:xlink="http://www.w3.org/1999/xlink" width="64" zoomAndPan="magnify" viewBox="0 0 48 48" height="64" preserveAspectRatio="xMidYMid meet" version="1.0"><defs><clipPath id="e3720cb048"><path d="M 12 12.035156 L 36 12.035156 L 36 34 L 12 34 Z M 12 12.035156 " clip-rule="nonzero"/></clipPath><clipPath id="fc78098275"><path d="M 15 33 L 19 33 L 19 35.542969 L 15 35.542969 Z M 15 33 " clip-rule="nonzero"/></clipPath><clipPath id="fce98ab07b"><path d="M 11.546875 12.035156 L 36 12.035156 L 36 35 L 11.546875 35 Z M 11.546875 12.035156 " clip-rule="nonzero"/></clipPath><clipPath id="68ee7e9049"><path d="M 11.546875 12.035156 L 36.527344 12.035156 L 36.527344 35.542969 L 11.546875 35.542969 Z M 11.546875 12.035156 " clip-rule="nonzero"/></clipPath></defs><path fill="#e3d956" d="M 19.144531 17.617188 C 19.113281 17.664062 16.457031 19.976562 15.5625 20.714844 C 13.257812 22.617188 11.355469 24.742188 12.46875 29.804688 C 13.191406 30.246094 15.316406 33.515625 16.1875 33.367188 C 16.832031 33.253906 18.519531 33.46875 19.199219 33.347656 C 23.6875 32.550781 26.324219 32.746094 29.746094 29.101562 C 32.019531 26.683594 34.84375 17.515625 33.851562 14.808594 C 32.570312 11.304688 22.003906 13.355469 19.144531 17.617188 Z M 19.144531 17.617188 " fill-opacity="1" fill-rule="evenodd"/><path fill="#f0e35f" d="M 28.792969 24.121094 C 28.816406 24.066406 29.410156 23.640625 29.589844 23.128906 C 29.800781 22.515625 29.601562 21.796875 29.582031 21.597656 C 29.542969 21.265625 27.007812 21.058594 26.746094 21.164062 C 26.730469 21.328125 23.65625 23.289062 23.75 23.765625 C 23.78125 23.914062 23.5 24.921875 23.640625 25.644531 C 23.792969 26.441406 24.386719 26.957031 24.8125 26.90625 C 25.335938 26.839844 26.5 27.246094 27.054688 26.355469 C 27.496094 25.644531 28.746094 24.140625 28.792969 24.121094 Z M 28.792969 24.121094 " fill-opacity="1" fill-rule="evenodd"/><path fill="#f0e35f" d="M 16.644531 25.820312 C 16.738281 25.8125 16.464844 27.878906 17.128906 29.011719 C 17.515625 29.671875 19.023438 29.292969 19.464844 29.375 C 20.058594 29.480469 20.851562 26.527344 21.128906 26.214844 C 21.652344 25.625 20.035156 22.304688 20.0625 22.160156 C 19.988281 22.160156 19.46875 22.03125 19.125 22.25 C 18.148438 22.871094 16.746094 24.367188 16.640625 24.511719 C 16.46875 24.746094 16.703125 25.550781 16.644531 25.820312 Z M 16.644531 25.820312 " fill-opacity="1" fill-rule="evenodd"/><path fill="#f0e35f" d="M 26.636719 19.375 C 26.707031 19.28125 29.148438 18.195312 29.171875 17.640625 C 29.1875 17.207031 28.855469 16.097656 28.199219 15.878906 C 27.617188 15.6875 26.632812 16.105469 26.570312 16.027344 C 26.503906 16.046875 23.734375 16.140625 23.710938 16.613281 C 23.691406 16.957031 22.316406 17.453125 22.082031 18.472656 C 21.875 19.375 22.804688 20.828125 22.800781 20.886719 C 22.789062 21.175781 26.5 19.332031 26.636719 19.375 Z M 26.636719 19.375 " fill-opacity="1" fill-rule="evenodd"/><g clip-path="url(#e3720cb048)"><path fill="#bdb42d" d="M 26.59375 14.195312 C 28.578125 13.867188 29.042969 14.453125 29.457031 14.597656 C 29.828125 14.726562 31.398438 15.007812 31.675781 15.757812 C 31.992188 16.625 31.421875 18.613281 31.195312 19.625 C 30.953125 20.683594 31.476562 20.726562 31.554688 21.367188 C 31.726562 22.773438 31.0625 23.996094 30.488281 24.738281 C 29.789062 25.640625 29.242188 26.40625 28.492188 27.203125 C 27.875 27.859375 26.867188 28.644531 26.085938 29.25 C 23.632812 31.140625 22.609375 30.648438 19.210938 31.253906 C 18.53125 31.375 17.800781 31.367188 17.15625 31.476562 C 16.285156 31.628906 16.121094 31.707031 15.398438 31.265625 C 14.433594 30.671875 14.25 29.515625 14.03125 28.164062 C 13.769531 26.550781 14.039062 25.710938 14.339844 24.230469 C 15.023438 20.90625 18.617188 21.089844 20.125 18.839844 C 21.074219 17.429688 21.625 16.050781 23.15625 15.226562 C 23.996094 14.773438 25.539062 14.371094 26.59375 14.195312 Z M 33.828125 14.066406 C 32.441406 13.132812 29.988281 13.25 28.917969 13.042969 C 27.511719 12.769531 25.859375 13.027344 24.5625 13.433594 C 24.234375 13.535156 23.84375 13.894531 23.519531 14.007812 C 22.949219 14.207031 23.019531 14.023438 22.671875 14.304688 C 22.304688 14.605469 22.105469 14.617188 21.695312 14.773438 C 21.367188 14.898438 20.9375 15.34375 20.753906 15.527344 C 20.089844 16.1875 18.597656 18.261719 18.597656 18.261719 C 16.769531 20.058594 16.261719 19.707031 14.214844 21.628906 C 11.121094 24.53125 13.214844 30.203125 13.277344 30.960938 C 13.320312 31.492188 13.761719 32.347656 14.117188 32.625 C 15.152344 33.433594 16.996094 33.613281 18.375 33.101562 C 20.382812 32.355469 19.859375 33.1875 21.160156 33.320312 C 21.59375 33.367188 22.320312 32.964844 22.890625 33.121094 C 25.046875 33.714844 27.296875 31.632812 28.648438 30.640625 C 29.164062 30.257812 30.113281 29.320312 30.585938 28.898438 C 31.636719 27.964844 34.59375 24.757812 34.929688 22.976562 C 35.359375 20.6875 33.8125 19.667969 33.695312 18.984375 C 33.527344 18.019531 33.960938 15.46875 33.828125 14.066406 Z M 33.828125 14.066406 " fill-opacity="1" fill-rule="evenodd"/></g><path fill="#a59c29" d="M 18.910156 28.957031 C 18.554688 29.234375 17.949219 29.289062 17.65625 28.953125 C 17.851562 28.195312 18.835938 28.6875 18.910156 28.957031 Z M 18.671875 27.542969 C 18.722656 26.910156 19.957031 26.703125 20.425781 26.949219 C 20.339844 27.609375 19.257812 27.679688 18.671875 27.542969 Z M 17.058594 27.015625 C 17.375 26.703125 17.707031 26.578125 17.863281 27.125 C 17.550781 27.207031 17.300781 27.3125 17.058594 27.015625 Z M 18.3125 26.382812 C 18.285156 25.757812 19.488281 25.417969 20.007812 25.515625 C 19.941406 26 18.925781 26.53125 18.3125 26.382812 Z M 16.964844 26.136719 C 17.023438 25.71875 17.851562 25.359375 17.964844 25.570312 C 18.0625 25.753906 17.394531 26.296875 16.964844 26.136719 Z M 16.929688 25.503906 C 17.003906 25.175781 17.203125 24.738281 17.582031 24.746094 C 17.503906 25.117188 17.296875 25.464844 16.929688 25.503906 Z M 18.621094 24.808594 C 18.71875 24.074219 20.261719 23.640625 20.304688 24.039062 C 20.34375 24.398438 19.164062 25.203125 18.621094 24.808594 Z M 18.683594 23.628906 C 18.664062 23.160156 19.269531 22.523438 19.6875 22.46875 C 19.71875 22.929688 19.074219 23.550781 18.683594 23.628906 Z M 20.503906 22.652344 C 20.453125 22.21875 20.875 21.289062 19.667969 21.664062 C 18.75 21.953125 17.140625 23.335938 16.617188 23.996094 C 14.972656 26.070312 16.363281 25.042969 16.414062 26.511719 C 16.160156 27.695312 15.554688 27.34375 16.367188 28.429688 C 16.59375 29.125 16.734375 29.332031 17.183594 29.460938 C 17.671875 29.601562 19.132812 29.863281 19.488281 29.765625 C 21.472656 29.234375 20.722656 28.496094 21.347656 27.839844 C 21.628906 27.542969 21.863281 27.160156 22.019531 26.664062 C 22.636719 24.699219 22.175781 24.996094 22.1875 24.316406 C 22.351562 23.183594 22.1875 23.382812 21.402344 23.007812 C 21.121094 22.796875 20.824219 22.785156 20.503906 22.652344 Z M 20.503906 22.652344 " fill-opacity="1" fill-rule="evenodd"/><path fill="#a59c29" d="M 23.136719 18.828125 C 23.308594 19.105469 23.472656 20.292969 22.929688 20.03125 C 22.71875 19.929688 22.492188 19.046875 23.136719 18.828125 Z M 24.292969 19.664062 C 24.121094 19.300781 24.355469 18.957031 24.714844 18.914062 C 24.828125 19.253906 24.714844 19.664062 24.292969 19.664062 Z M 25.472656 19.140625 C 25.3125 18.859375 25.242188 17.855469 25.820312 17.722656 C 25.972656 18.058594 26.121094 19.125 25.472656 19.140625 Z M 26.636719 18.257812 C 26.859375 18.527344 26.808594 18.679688 26.636719 18.914062 C 26.433594 18.695312 26.261719 18.355469 26.636719 18.257812 Z M 22.871094 18.09375 C 22.652344 17.71875 22.785156 17.476562 23.207031 17.464844 C 23.203125 17.804688 23.179688 17.988281 22.871094 18.09375 Z M 28.058594 18.078125 C 27.890625 17.773438 27.984375 17.210938 28.410156 17.125 C 28.550781 17.558594 28.492188 17.972656 28.058594 18.078125 Z M 26.132812 17.226562 C 25.824219 17.054688 25.847656 16.746094 26.050781 16.480469 C 26.4375 16.570312 26.421875 17.015625 26.132812 17.226562 Z M 23.957031 17.640625 C 23.855469 17.277344 24.027344 16.539062 24.628906 16.546875 C 24.667969 16.820312 24.519531 17.664062 23.957031 17.640625 Z M 27.277344 17.023438 C 26.914062 17.179688 26.882812 16.347656 26.96875 16.132812 C 27.566406 16.136719 27.527344 16.914062 27.277344 17.023438 Z M 22.953125 21.175781 C 23.214844 21.472656 23.398438 21.644531 24.011719 21.074219 C 24.316406 20.851562 25.269531 20.882812 27.078125 19.609375 C 28.601562 18.539062 27.734375 19.1875 28.96875 18.476562 C 29.660156 18.078125 29.734375 18.125 29.671875 16.070312 C 29.457031 15.972656 29.285156 15.855469 29.023438 15.742188 C 28.730469 15.617188 28.441406 15.605469 28.179688 15.484375 C 27.417969 15.136719 27.148438 15.265625 26.367188 15.421875 C 25.832031 15.527344 24.210938 15.371094 23.058594 16.476562 L 22.046875 17.566406 C 21.253906 18.769531 21 19.414062 21.675781 20.785156 C 22.261719 21.972656 22.550781 21.304688 22.953125 21.175781 Z M 22.953125 21.175781 " fill-opacity="1" fill-rule="evenodd"/><path fill="#a59c29" d="M 25.734375 25.925781 C 26.070312 25.726562 27.148438 25.6875 26.824219 26.183594 C 26.75 26.292969 25.910156 26.480469 25.734375 25.925781 Z M 23.898438 25.175781 C 24.203125 25.03125 25.035156 25.003906 24.796875 25.566406 C 24.457031 25.753906 23.792969 25.765625 23.898438 25.175781 Z M 27.757812 24.765625 C 27.316406 25.003906 26.628906 24.871094 26.464844 24.472656 C 26.816406 24.148438 27.761719 24.132812 27.757812 24.765625 Z M 25.691406 24.207031 C 25.414062 24.335938 24.167969 24.101562 24.316406 23.40625 C 24.714844 23.316406 25.757812 23.59375 25.691406 24.207031 Z M 27.378906 23.273438 C 27.570312 23.121094 28.3125 23.105469 28.359375 23.613281 C 27.953125 23.742188 27.570312 23.632812 27.378906 23.273438 Z M 26.335938 22.828125 C 26.109375 23.09375 25.152344 22.773438 25.492188 22.402344 C 25.769531 22.097656 26.621094 22.488281 26.335938 22.828125 Z M 29.339844 22.476562 C 28.964844 22.703125 28.460938 22.050781 28.652344 21.539062 C 29.132812 21.5 29.644531 22.292969 29.339844 22.476562 Z M 27.410156 21.972656 C 27.148438 22.019531 26.960938 21.871094 26.925781 21.5625 C 27.3125 21.515625 27.445312 21.6875 27.410156 21.972656 Z M 28.578125 20.074219 C 27.402344 20.355469 26.96875 20.703125 26.058594 21.28125 C 24.0625 22.554688 24.246094 21.890625 23.292969 24.0625 C 23.101562 24.5 23.117188 25.207031 23.09375 25.75 C 23.046875 27.058594 23.5625 26.96875 25.035156 27.53125 C 25.949219 27.882812 26.160156 27.503906 26.445312 27.246094 C 26.871094 26.863281 27.078125 26.8125 27.414062 26.363281 C 28.417969 25.027344 28.03125 25.332031 29.210938 24.464844 C 29.542969 24.222656 29.824219 23.890625 30.039062 23.445312 C 30.175781 23.160156 30.398438 22.207031 30.339844 21.867188 C 30.285156 21.546875 29.746094 21.070312 29.546875 20.78125 C 29.21875 20.300781 29.277344 19.90625 28.578125 20.074219 Z M 28.578125 20.074219 " fill-opacity="1" fill-rule="evenodd"/><path fill="#a59c29" d="M 33.375 28.113281 C 34.003906 27.589844 34.949219 26.519531 35.191406 25.917969 C 35.175781 25.761719 35.488281 25.382812 35.535156 25.054688 C 35.605469 24.542969 35.414062 24.042969 35.308594 23.867188 C 34.945312 24.222656 33.625 25.480469 33.316406 25.921875 C 32.738281 26.738281 32.242188 28.285156 33.375 28.113281 Z M 33.375 28.113281 " fill-opacity="1" fill-rule="evenodd"/><path fill="#a59c29" d="M 26.261719 34.109375 C 26.53125 34.011719 28 33.121094 28.136719 32.925781 L 28.566406 32.371094 L 28.703125 31.046875 C 28.4375 31.101562 24.75 33.085938 24.492188 33.300781 L 25.554688 34.207031 Z M 26.261719 34.109375 " fill-opacity="1" fill-rule="evenodd"/><path fill="#a59c29" d="M 24.855469 34.785156 C 25.304688 34.601562 25.441406 34.5625 25.765625 34.445312 C 25.765625 34.445312 26.023438 34.019531 25.976562 33.761719 C 25.917969 33.429688 25.507812 33.078125 25.402344 32.910156 L 23.894531 33.921875 C 23.859375 34.296875 24.332031 34.746094 24.855469 34.785156 Z M 24.855469 34.785156 " fill-opacity="1" fill-rule="evenodd"/><g clip-path="url(#fc78098275)"><path fill="#a59c29" d="M 16.636719 35.542969 C 16.863281 35.476562 17.054688 35.421875 17.3125 35.375 L 17.996094 35.019531 L 18.1875 34.09375 L 17.503906 33.9375 L 15.714844 34.308594 L 15.96875 35.242188 Z M 16.636719 35.542969 " fill-opacity="1" fill-rule="evenodd"/></g><g clip-path="url(#fce98ab07b)"><path fill="#a59c29" d="M 32.953125 14.554688 C 33.417969 15.28125 32.328125 18.269531 32.492188 19.234375 C 32.609375 19.917969 34.117188 20.808594 33.6875 23.09375 C 33.351562 24.875 30.25 27.914062 29.203125 28.847656 C 28.726562 29.269531 28.234375 29.585938 27.71875 29.964844 C 26.367188 30.960938 24.71875 32.816406 22.5625 32.226562 C 21.992188 32.070312 21.816406 32.285156 21.382812 32.242188 C 20.082031 32.109375 20.367188 31.605469 18.363281 32.351562 C 16.984375 32.863281 15.308594 32.789062 14.273438 31.980469 C 13.917969 31.703125 13.972656 31.519531 13.929688 30.988281 C 13.867188 30.230469 11.5625 24.832031 14.65625 21.929688 C 16.707031 20.007812 17.15625 20.410156 18.984375 18.613281 C 18.984375 18.613281 20.574219 16.398438 21.234375 15.738281 C 21.417969 15.554688 21.695312 15.308594 22.019531 15.183594 C 22.429688 15.027344 22.578125 15.144531 22.945312 14.847656 C 23.292969 14.5625 23.160156 14.5625 23.726562 14.363281 C 24.050781 14.25 24.332031 14.152344 24.664062 14.050781 C 25.960938 13.644531 27.503906 13.195312 28.910156 13.464844 C 29.980469 13.671875 31.566406 13.621094 32.953125 14.554688 Z M 34.808594 15.660156 C 34.996094 14.285156 34.480469 13.605469 33.804688 13.210938 C 33.601562 13.09375 32.953125 12.878906 32.722656 12.820312 C 32.5 12.761719 32.328125 12.492188 32.144531 12.433594 C 31.953125 12.375 31.609375 12.390625 31.367188 12.324219 C 29.820312 11.902344 27.816406 12.554688 26.273438 12.71875 C 25.375 12.8125 22.566406 13.890625 21.804688 14.269531 C 20.847656 14.742188 19.761719 16.378906 19.101562 17.300781 C 18.335938 18.371094 18.804688 18.007812 17.597656 18.839844 C 14.953125 20.65625 14.042969 20.601562 13.027344 22.921875 C 12.328125 24.515625 11.863281 25.550781 11.789062 27.519531 C 11.757812 28.410156 12.644531 31.519531 13.042969 32.273438 C 13.589844 33.300781 14.039062 33.175781 14.695312 33.851562 C 15.378906 34.550781 15.703125 34.785156 16.957031 34.539062 C 17.710938 34.390625 18.71875 34.097656 19.382812 33.996094 C 20.949219 33.753906 22.179688 34.742188 24.40625 33.949219 C 24.929688 33.761719 25.996094 33.175781 26.394531 32.910156 C 27.386719 32.25 27.957031 32.128906 28.957031 31.308594 C 29.207031 31.101562 29.613281 30.628906 29.816406 30.4375 C 30.140625 30.140625 30.328125 30.097656 30.65625 29.816406 L 32.707031 27.621094 C 32.980469 27.296875 33.261719 27.007812 33.511719 26.738281 C 34.199219 25.996094 36 23.253906 35.984375 22.226562 C 35.980469 21.894531 35.625 20.96875 35.511719 20.671875 C 35.292969 20.101562 35.25 20.046875 34.808594 19.730469 C 33.730469 18.964844 34.332031 18.054688 34.339844 17.203125 C 34.34375 16.421875 34.65625 16.777344 34.808594 15.660156 Z M 34.808594 15.660156 " fill-opacity="1" fill-rule="evenodd"/></g><g clip-path="url(#68ee7e9049)"><path fill="#634a0b" d="M 34.453125 15.53125 C 34.300781 16.644531 33.976562 16.433594 33.972656 17.21875 C 33.636719 20.375 34.683594 19.675781 35.316406 20.792969 C 35.429688 21.085938 35.628906 21.617188 35.632812 21.949219 C 35.65625 23.71875 33.472656 26.035156 32.339844 27.367188 C 29.976562 29.886719 28.820312 30.753906 26.054688 32.59375 C 25.234375 33.140625 24.066406 33.710938 23.074219 33.804688 C 21.511719 33.953125 20.488281 33.152344 19.199219 33.347656 C 18.539062 33.449219 17.65625 33.742188 16.902344 33.890625 C 15.648438 34.140625 15.574219 33.996094 14.890625 33.296875 C 14.234375 32.625 13.796875 33.023438 13.253906 31.996094 C 12.851562 31.242188 11.980469 28.410156 12.011719 27.519531 C 12.085938 25.550781 12.535156 24.539062 13.234375 22.949219 C 14.253906 20.628906 15.164062 20.761719 17.804688 18.945312 C 19.597656 17.710938 20.238281 15.292969 21.960938 14.441406 C 22.722656 14.0625 25.402344 13.0625 26.300781 12.96875 C 28.863281 12.695312 31.195312 12.128906 33.621094 13.539062 C 34.296875 13.933594 34.640625 14.15625 34.453125 15.53125 Z M 16.636719 35.542969 L 16.511719 34.402344 L 17.179688 34.320312 L 17.3125 35.375 C 17.789062 35.375 18.710938 35.078125 19.113281 34.960938 C 20.039062 34.683594 22.023438 35.34375 23.121094 35.378906 C 23.566406 35.394531 24.535156 35.03125 24.855469 34.785156 C 24.789062 34.429688 24.683594 34.058594 24.71875 33.6875 L 25.3125 33.417969 C 25.496094 33.71875 25.671875 34.011719 25.765625 34.445312 C 25.957031 34.289062 26.027344 34.324219 26.261719 34.109375 L 25.992188 33.011719 C 26.253906 32.792969 27.457031 32.0625 27.722656 32.011719 L 28.136719 32.925781 C 28.628906 32.796875 31.753906 30.109375 32.253906 29.476562 C 32.726562 28.875 33.261719 28.523438 33.375 28.113281 C 33.429688 26.847656 33.3125 26.964844 33.890625 26.144531 C 34.199219 25.707031 34.554688 25.089844 34.917969 24.734375 C 35.089844 25.027344 35.148438 25.523438 35.191406 25.917969 C 35.539062 25.597656 36.628906 23.476562 36.511719 22.707031 C 36.417969 22.085938 36.101562 21.527344 35.882812 20.972656 C 35.292969 19.472656 34.5 19.707031 34.894531 17.945312 C 35.089844 17.0625 35.453125 17.019531 35.394531 15.75 C 35.351562 14.777344 34.875 13.671875 34.078125 13.164062 C 31.375 11.445312 29.722656 12.128906 27.042969 12.394531 C 26.066406 12.488281 26.582031 12.289062 25.414062 12.691406 C 24.425781 13.027344 23.519531 13.28125 22.621094 13.671875 C 19.820312 14.898438 18.96875 17.746094 17.898438 18.449219 C 15.78125 19.835938 13.933594 20.472656 12.804688 22.847656 C 11.984375 24.617188 11.789062 25.3125 11.566406 27.339844 C 11.453125 28.367188 12.253906 30.894531 12.664062 31.832031 C 12.949219 32.484375 13.429688 33.832031 14.066406 34.214844 C 14.695312 34.585938 14.488281 34.203125 15.238281 34.976562 C 15.640625 35.390625 15.851562 35.542969 16.636719 35.542969 Z M 16.636719 35.542969 " fill-opacity="1" fill-rule="evenodd"/></g></svg>